<svg width="174" height="134" viewBox="0 0 174 134" fill="none" xmlns="http://www.w3.org/2000/svg">
<path d="M157.49 128.203H16.5092C14.0406 128.203 11.6035 127.651 9.37726 126.588C7.15104 125.526 5.19246 123.979 3.64576 122.062C2.09905 120.145 1.00362 117.907 0.440133 115.512C-0.123355 113.117 -0.140541 110.627 0.389835 108.225L6.68702 79.707H167.313L173.61 108.225C174.14 110.627 174.123 113.117 173.559 115.512C172.996 117.907 171.9 120.145 170.354 122.062C168.807 123.979 166.848 125.526 164.622 126.588C162.396 127.651 159.959 128.203 157.49 128.203ZM7.07434 80.1872L0.860452 108.328C0.345576 110.66 0.362273 113.078 0.909316 115.402C1.45636 117.727 2.51981 119.9 4.02136 121.761C5.5229 123.622 7.42429 125.124 9.5855 126.155C11.7467 127.187 14.1127 127.723 16.5092 127.723H157.49C159.887 127.723 162.253 127.187 164.414 126.155C166.575 125.124 168.477 123.622 169.978 121.761C171.48 119.9 172.543 117.727 173.09 115.402C173.637 113.078 173.654 110.66 173.139 108.328L166.925 80.1872H7.07434Z" fill="#F2F2F2"/>
<path d="M139.589 18.8164L146.984 17.7183L145.816 12.5928L141.383 14.8175L132.235 11.3828C132.105 11.0475 131.88 10.7573 131.587 10.5475C131.294 10.3376 130.946 10.2173 130.585 10.2011C130.225 10.1849 129.867 10.2736 129.557 10.4562C129.246 10.6389 128.995 10.9078 128.835 11.23C128.675 11.5522 128.612 11.9138 128.655 12.2708C128.698 12.6278 128.844 12.9648 129.075 13.2405C129.307 13.5163 129.614 13.719 129.959 13.8239C130.304 13.9288 130.672 13.9314 131.019 13.8313L139.589 18.8164Z" fill="#FFB6B6"/>
<path d="M154.62 14.9849C154.048 17.1444 140.874 19.5802 140.88 19.113C140.899 17.7853 141.746 14.9993 141.262 14.2765C140.986 13.8632 144.711 12.807 144.711 12.807C144.711 12.807 146.767 12.0185 149.433 11.0561C150.182 10.7701 150.991 10.6774 151.785 10.7867C152.579 10.8961 153.333 11.2038 153.975 11.6813C153.975 11.6813 155.192 12.8254 154.62 14.9849Z" fill="#008ADD"/>
<path d="M27.1724 104.914H22.5941C21.5716 104.914 20.591 105.319 19.868 106.039C19.145 106.76 18.7388 107.737 18.7388 108.755C18.7388 109.774 19.145 110.751 19.868 111.471C20.591 112.192 21.5716 112.597 22.5941 112.597H27.1724C28.1949 112.597 29.1755 112.192 29.8985 111.471C30.6215 110.751 31.0277 109.774 31.0277 108.755C31.0277 107.737 30.6215 106.76 29.8985 106.039C29.1755 105.319 28.1949 104.914 27.1724 104.914Z" fill="#E6E6E6"/>
<path d="M41.8706 104.914H37.2924C36.2699 104.914 35.2892 105.319 34.5662 106.039C33.8432 106.76 33.437 107.737 33.437 108.755C33.437 109.774 33.8432 110.751 34.5662 111.471C35.2892 112.192 36.2699 112.597 37.2924 112.597H41.8706C42.8931 112.597 43.8737 112.192 44.5967 111.471C45.3198 110.751 45.726 109.774 45.726 108.755C45.726 107.737 45.3198 106.76 44.5967 106.039C43.8737 105.319 42.8931 104.914 41.8706 104.914Z" fill="#E6E6E6"/>
<path d="M56.5693 104.914H51.9911C50.9686 104.914 49.988 105.319 49.265 106.039C48.5419 106.76 48.1357 107.737 48.1357 108.755C48.1357 109.774 48.5419 110.751 49.265 111.471C49.988 112.192 50.9686 112.597 51.9911 112.597H56.5693C57.5918 112.597 58.5725 112.192 59.2955 111.471C60.0185 110.751 60.4247 109.774 60.4247 108.755C60.4247 107.737 60.0185 106.76 59.2955 106.039C58.5725 105.319 57.5918 104.914 56.5693 104.914Z" fill="#E6E6E6"/>
<path d="M71.2681 104.914H66.6898C65.6673 104.914 64.6867 105.319 63.9637 106.039C63.2407 106.76 62.8345 107.737 62.8345 108.755C62.8345 109.774 63.2407 110.751 63.9637 111.471C64.6867 112.192 65.6673 112.597 66.6898 112.597H71.2681C72.2906 112.597 73.2712 112.192 73.9942 111.471C74.7172 110.751 75.1234 109.774 75.1234 108.755C75.1234 107.737 74.7172 106.76 73.9942 106.039C73.2712 105.319 72.2906 104.914 71.2681 104.914Z" fill="#E6E6E6"/>
<path d="M85.9663 104.914H81.3881C80.3656 104.914 79.3849 105.319 78.6619 106.039C77.9389 106.76 77.5327 107.737 77.5327 108.755C77.5327 109.774 77.9389 110.751 78.6619 111.471C79.3849 112.192 80.3656 112.597 81.3881 112.597H85.9663C86.9888 112.597 87.9694 112.192 88.6924 111.471C89.4155 110.751 89.8216 109.774 89.8216 108.755C89.8216 107.737 89.4155 106.76 88.6924 106.039C87.9694 105.319 86.9888 104.914 85.9663 104.914Z" fill="#E6E6E6"/>
<path d="M100.665 104.914H96.0868C95.0643 104.914 94.0837 105.319 93.3606 106.039C92.6376 106.76 92.2314 107.737 92.2314 108.755C92.2314 109.774 92.6376 110.751 93.3606 111.471C94.0837 112.192 95.0643 112.597 96.0868 112.597H100.665C101.688 112.597 102.668 112.192 103.391 111.471C104.114 110.751 104.52 109.774 104.52 108.755C104.52 107.737 104.114 106.76 103.391 106.039C102.668 105.319 101.688 104.914 100.665 104.914Z" fill="#E6E6E6"/>
<path d="M115.363 104.914H110.785C109.763 104.914 108.782 105.319 108.059 106.039C107.336 106.76 106.93 107.737 106.93 108.755C106.93 109.774 107.336 110.751 108.059 111.471C108.782 112.192 109.763 112.597 110.785 112.597H115.363C116.386 112.597 117.366 112.192 118.089 111.471C118.812 110.751 119.219 109.774 119.219 108.755C119.219 107.737 118.812 106.76 118.089 106.039C117.366 105.319 116.386 104.914 115.363 104.914Z" fill="#E6E6E6"/>
<path d="M130.062 104.914H125.484C124.461 104.914 123.481 105.319 122.758 106.039C122.035 106.76 121.628 107.737 121.628 108.755C121.628 109.774 122.035 110.751 122.758 111.471C123.481 112.192 124.461 112.597 125.484 112.597H130.062C131.084 112.597 132.065 112.192 132.788 111.471C133.511 110.751 133.917 109.774 133.917 108.755C133.917 107.737 133.511 106.76 132.788 106.039C132.065 105.319 131.084 104.914 130.062 104.914Z" fill="#E6E6E6"/>
<path d="M144.761 104.914H140.183C139.16 104.914 138.179 105.319 137.456 106.039C136.733 106.76 136.327 107.737 136.327 108.755C136.327 109.774 136.733 110.751 137.456 111.471C138.179 112.192 139.16 112.597 140.183 112.597H144.761C145.783 112.597 146.764 112.192 147.487 111.471C148.21 110.751 148.616 109.774 148.616 108.755C148.616 107.737 148.21 106.76 147.487 106.039C146.764 105.319 145.783 104.914 144.761 104.914Z" fill="#E6E6E6"/>
<path d="M27.1724 88.8281H22.5941C21.5716 88.8281 20.591 89.2328 19.868 89.9532C19.145 90.6736 18.7388 91.6506 18.7388 92.6694C18.7388 93.6881 19.145 94.6652 19.868 95.3855C20.591 96.1059 21.5716 96.5106 22.5941 96.5106H27.1724C28.1949 96.5106 29.1755 96.1059 29.8985 95.3855C30.6215 94.6652 31.0277 93.6881 31.0277 92.6694C31.0277 91.6506 30.6215 90.6736 29.8985 89.9532C29.1755 89.2328 28.1949 88.8281 27.1724 88.8281Z" fill="#E6E6E6"/>
<path d="M41.8706 88.8281H37.2924C36.2699 88.8281 35.2892 89.2328 34.5662 89.9532C33.8432 90.6736 33.437 91.6506 33.437 92.6694C33.437 93.6881 33.8432 94.6652 34.5662 95.3855C35.2892 96.1059 36.2699 96.5106 37.2924 96.5106H41.8706C42.8931 96.5106 43.8737 96.1059 44.5967 95.3855C45.3198 94.6652 45.726 93.6881 45.726 92.6694C45.726 91.6506 45.3198 90.6736 44.5967 89.9532C43.8737 89.2328 42.8931 88.8281 41.8706 88.8281Z" fill="#E6E6E6"/>
<path d="M56.5693 88.8281H51.9911C50.9686 88.8281 49.988 89.2328 49.265 89.9532C48.5419 90.6736 48.1357 91.6506 48.1357 92.6694C48.1357 93.6881 48.5419 94.6652 49.265 95.3855C49.988 96.1059 50.9686 96.5106 51.9911 96.5106H56.5693C57.5918 96.5106 58.5725 96.1059 59.2955 95.3855C60.0185 94.6652 60.4247 93.6881 60.4247 92.6694C60.4247 91.6506 60.0185 90.6736 59.2955 89.9532C58.5725 89.2328 57.5918 88.8281 56.5693 88.8281Z" fill="#41D400"/>
<path d="M71.2681 88.8281H66.6898C65.6673 88.8281 64.6867 89.2328 63.9637 89.9532C63.2407 90.6736 62.8345 91.6506 62.8345 92.6694C62.8345 93.6881 63.2407 94.6652 63.9637 95.3855C64.6867 96.1059 65.6673 96.5106 66.6898 96.5106H71.2681C72.2906 96.5106 73.2712 96.1059 73.9942 95.3855C74.7172 94.6652 75.1234 93.6881 75.1234 92.6694C75.1234 91.6506 74.7172 90.6736 73.9942 89.9532C73.2712 89.2328 72.2906 88.8281 71.2681 88.8281Z" fill="#E6E6E6"/>
<path d="M85.9663 88.8281H81.3881C80.3656 88.8281 79.3849 89.2328 78.6619 89.9532C77.9389 90.6736 77.5327 91.6506 77.5327 92.6694C77.5327 93.6881 77.9389 94.6652 78.6619 95.3855C79.3849 96.1059 80.3656 96.5106 81.3881 96.5106H85.9663C86.9888 96.5106 87.9694 96.1059 88.6924 95.3855C89.4155 94.6652 89.8216 93.6881 89.8216 92.6694C89.8216 91.6506 89.4155 90.6736 88.6924 89.9532C87.9694 89.2328 86.9888 88.8281 85.9663 88.8281Z" fill="#E6E6E6"/>
<path d="M100.665 88.8281H96.0868C95.0643 88.8281 94.0837 89.2328 93.3606 89.9532C92.6376 90.6736 92.2314 91.6506 92.2314 92.6694C92.2314 93.6881 92.6376 94.6652 93.3606 95.3855C94.0837 96.1059 95.0643 96.5106 96.0868 96.5106H100.665C101.688 96.5106 102.668 96.1059 103.391 95.3855C104.114 94.6652 104.52 93.6881 104.52 92.6694C104.52 91.6506 104.114 90.6736 103.391 89.9532C102.668 89.2328 101.688 88.8281 100.665 88.8281Z" fill="#E6E6E6"/>
<path d="M115.363 88.8281H110.785C109.763 88.8281 108.782 89.2328 108.059 89.9532C107.336 90.6736 106.93 91.6506 106.93 92.6694C106.93 93.6881 107.336 94.6652 108.059 95.3855C108.782 96.1059 109.763 96.5106 110.785 96.5106H115.363C116.386 96.5106 117.366 96.1059 118.089 95.3855C118.812 94.6652 119.219 93.6881 119.219 92.6694C119.219 91.6506 118.812 90.6736 118.089 89.9532C117.366 89.2328 116.386 88.8281 115.363 88.8281Z" fill="#E6E6E6"/>
<path d="M130.062 88.8281H125.484C124.461 88.8281 123.481 89.2328 122.758 89.9532C122.035 90.6736 121.628 91.6506 121.628 92.6694C121.628 93.6881 122.035 94.6652 122.758 95.3855C123.481 96.1059 124.461 96.5106 125.484 96.5106H130.062C131.084 96.5106 132.065 96.1059 132.788 95.3855C133.511 94.6652 133.917 93.6881 133.917 92.6694C133.917 91.6506 133.511 90.6736 132.788 89.9532C132.065 89.2328 131.084 88.8281 130.062 88.8281Z" fill="#E6E6E6"/>
<path d="M144.761 88.8281H140.183C139.16 88.8281 138.179 89.2328 137.456 89.9532C136.733 90.6736 136.327 91.6506 136.327 92.6694C136.327 93.6881 136.733 94.6652 137.456 95.3855C138.179 96.1059 139.16 96.5106 140.183 96.5106H144.761C145.783 96.5106 146.764 96.1059 147.487 95.3855C148.21 94.6652 148.616 93.6881 148.616 92.6694C148.616 91.6506 148.21 90.6736 147.487 89.9532C146.764 89.2328 145.783 88.8281 144.761 88.8281Z" fill="#E6E6E6"/>
<path d="M34.0395 97.1113H29.4613C28.4388 97.1113 27.4582 97.516 26.7352 98.2364C26.0121 98.9568 25.606 99.9338 25.606 100.953C25.606 101.971 26.0121 102.948 26.7352 103.669C27.4582 104.389 28.4388 104.794 29.4613 104.794H34.0395C35.062 104.794 36.0427 104.389 36.7657 103.669C37.4887 102.948 37.8949 101.971 37.8949 100.953C37.8949 99.9338 37.4887 98.9568 36.7657 98.2364C36.0427 97.516 35.062 97.1113 34.0395 97.1113Z" fill="#E6E6E6"/>
<path d="M48.7383 97.1113H44.16C43.1375 97.1113 42.1569 97.516 41.4339 98.2364C40.7109 98.9568 40.3047 99.9338 40.3047 100.953C40.3047 101.971 40.7109 102.948 41.4339 103.669C42.1569 104.389 43.1375 104.794 44.16 104.794H48.7383C49.7608 104.794 50.7414 104.389 51.4644 103.669C52.1875 102.948 52.5936 101.971 52.5936 100.953C52.5936 99.9338 52.1875 98.9568 51.4644 98.2364C50.7414 97.516 49.7608 97.1113 48.7383 97.1113Z" fill="#E6E6E6"/>
<path d="M63.4365 97.1113H58.8583C57.8358 97.1113 56.8552 97.516 56.1321 98.2364C55.4091 98.9568 55.0029 99.9338 55.0029 100.953C55.0029 101.971 55.4091 102.948 56.1321 103.669C56.8552 104.389 57.8358 104.794 58.8583 104.794H63.4365C64.459 104.794 65.4397 104.389 66.1627 103.669C66.8857 102.948 67.2919 101.971 67.2919 100.953C67.2919 99.9338 66.8857 98.9568 66.1627 98.2364C65.4397 97.516 64.459 97.1113 63.4365 97.1113Z" fill="#E6E6E6"/>
<path d="M78.1352 97.1113H73.557C72.5345 97.1113 71.5539 97.516 70.8309 98.2364C70.1078 98.9568 69.7017 99.9338 69.7017 100.953C69.7017 101.971 70.1078 102.948 70.8309 103.669C71.5539 104.389 72.5345 104.794 73.557 104.794H78.1352C79.1578 104.794 80.1384 104.389 80.8614 103.669C81.5844 102.948 81.9906 101.971 81.9906 100.953C81.9906 99.9338 81.5844 98.9568 80.8614 98.2364C80.1384 97.516 79.1578 97.1113 78.1352 97.1113Z" fill="#E6E6E6"/>
<path d="M92.834 97.1113H88.2558C87.2332 97.1113 86.2526 97.516 85.5296 98.2364C84.8066 98.9568 84.4004 99.9338 84.4004 100.953C84.4004 101.971 84.8066 102.948 85.5296 103.669C86.2526 104.389 87.2332 104.794 88.2558 104.794H92.834C93.8565 104.794 94.8371 104.389 95.5601 103.669C96.2832 102.948 96.6894 101.971 96.6894 100.953C96.6894 99.9338 96.2832 98.9568 95.5601 98.2364C94.8371 97.516 93.8565 97.1113 92.834 97.1113Z" fill="#E6E6E6"/>
<path d="M107.532 97.1113H102.954C101.931 97.1113 100.951 97.516 100.228 98.2364C99.5048 98.9568 99.0986 99.9338 99.0986 100.953C99.0986 101.971 99.5048 102.948 100.228 103.669C100.951 104.389 101.931 104.794 102.954 104.794H107.532C108.555 104.794 109.535 104.389 110.258 103.669C110.981 102.948 111.388 101.971 111.388 100.953C111.388 99.9338 110.981 98.9568 110.258 98.2364C109.535 97.516 108.555 97.1113 107.532 97.1113Z" fill="#E6E6E6"/>
<path d="M122.231 97.1113H117.653C116.63 97.1113 115.65 97.516 114.927 98.2364C114.204 98.9568 113.797 99.9338 113.797 100.953C113.797 101.971 114.204 102.948 114.927 103.669C115.65 104.389 116.63 104.794 117.653 104.794H122.231C123.253 104.794 124.234 104.389 124.957 103.669C125.68 102.948 126.086 101.971 126.086 100.953C126.086 99.9338 125.68 98.9568 124.957 98.2364C124.234 97.516 123.253 97.1113 122.231 97.1113Z" fill="#E6E6E6"/>
<path d="M136.929 97.1113H132.351C131.328 97.1113 130.348 97.516 129.625 98.2364C128.902 98.9568 128.496 99.9338 128.496 100.953C128.496 101.971 128.902 102.948 129.625 103.669C130.348 104.389 131.328 104.794 132.351 104.794H136.929C137.952 104.794 138.932 104.389 139.655 103.669C140.378 102.948 140.785 101.971 140.785 100.953C140.785 99.9338 140.378 98.9568 139.655 98.2364C138.932 97.516 137.952 97.1113 136.929 97.1113Z" fill="#E6E6E6"/>
<path d="M151.628 97.1113H147.05C146.027 97.1113 145.047 97.516 144.324 98.2364C143.601 98.9568 143.194 99.9338 143.194 100.953C143.194 101.971 143.601 102.948 144.324 103.669C145.047 104.389 146.027 104.794 147.05 104.794H151.628C152.65 104.794 153.631 104.389 154.354 103.669C155.077 102.948 155.483 101.971 155.483 100.953C155.483 99.9338 155.077 98.9568 154.354 98.2364C153.631 97.516 152.65 97.1113 151.628 97.1113Z" fill="#E6E6E6"/>
<path d="M134.672 79.9456H39.5499C38.0411 79.9439 36.5945 79.346 35.5276 78.283C34.4607 77.22 33.8606 75.7787 33.8589 74.2754L33.8651 74.2213C37.2303 59.7139 37.229 41.527 33.8611 16.986L33.8589 16.9534C33.8606 15.4501 34.4607 14.0089 35.5276 12.9459C36.5945 11.8829 38.0411 11.2849 39.5499 11.2832H134.672C136.181 11.2849 137.627 11.8829 138.694 12.9459C139.761 14.0089 140.361 15.4501 140.363 16.9534L140.358 17.0036C136.288 35.862 136.288 55.3669 140.358 74.2253L140.363 74.2754C140.361 75.7788 139.761 77.22 138.694 78.283C137.627 79.346 136.181 79.9439 134.672 79.9456Z" fill="white"/>
<path d="M134.672 79.9456H39.5499C38.0411 79.9439 36.5945 79.346 35.5276 78.283C34.4607 77.22 33.8606 75.7787 33.8589 74.2754L33.8651 74.2213C37.2303 59.7139 37.229 41.527 33.8611 16.986L33.8589 16.9534C33.8606 15.4501 34.4607 14.0089 35.5276 12.9459C36.5945 11.8829 38.0411 11.2849 39.5499 11.2832H134.672C136.181 11.2849 137.627 11.8829 138.694 12.9459C139.761 14.0089 140.361 15.4501 140.363 16.9534L140.358 17.0036C136.288 35.862 136.288 55.3669 140.358 74.2253L140.363 74.2754C140.361 75.7788 139.761 77.22 138.694 78.283C137.627 79.346 136.181 79.9439 134.672 79.9456ZM34.3409 74.3024C34.3496 75.6737 34.9021 76.9859 35.8779 77.9531C36.8536 78.9203 38.1735 79.4639 39.5499 79.4655H134.672C136.049 79.4639 137.369 78.92 138.345 77.9525C139.321 76.9849 139.873 75.6721 139.881 74.3005C135.804 55.3922 135.804 35.8367 139.881 16.9283C139.873 15.5567 139.321 14.2439 138.345 13.2764C137.369 12.3088 136.049 11.7649 134.672 11.7634H39.5499C38.1717 11.7649 36.8501 12.31 35.874 13.2795C34.8979 14.249 34.3467 15.564 34.3408 16.9372C37.7125 41.5137 37.7127 59.7445 34.3409 74.3024Z" fill="#E6E6E6"/>
<path d="M124.701 28.2089H47.8348C47.4194 28.2089 47.021 28.0445 46.7273 27.7518C46.4336 27.4592 46.2686 27.0623 46.2686 26.6484C46.2686 26.2345 46.4336 25.8376 46.7273 25.545C47.021 25.2523 47.4194 25.0879 47.8348 25.0879H124.701C125.116 25.0879 125.515 25.2523 125.808 25.545C126.102 25.8376 126.267 26.2345 126.267 26.6484C126.267 27.0623 126.102 27.4592 125.808 27.7518C125.515 28.0445 125.116 28.2089 124.701 28.2089Z" fill="#E6E6E6"/>
<path d="M124.701 35.7714H47.8348C47.4194 35.7714 47.021 35.607 46.7273 35.3143C46.4336 35.0217 46.2686 34.6248 46.2686 34.2109C46.2686 33.797 46.4336 33.4001 46.7273 33.1075C47.021 32.8148 47.4194 32.6504 47.8348 32.6504H124.701C125.116 32.6504 125.515 32.8148 125.808 33.1075C126.102 33.4001 126.267 33.797 126.267 34.2109C126.267 34.6248 126.102 35.0217 125.808 35.3143C125.515 35.607 125.116 35.7714 124.701 35.7714Z" fill="#E6E6E6"/>
<path d="M124.701 43.3339H47.8348C47.4194 43.3339 47.021 43.1695 46.7273 42.8768C46.4336 42.5842 46.2686 42.1873 46.2686 41.7734C46.2686 41.3595 46.4336 40.9626 46.7273 40.67C47.021 40.3773 47.4194 40.2129 47.8348 40.2129H124.701C125.116 40.2129 125.515 40.3773 125.808 40.67C126.102 40.9626 126.267 41.3595 126.267 41.7734C126.267 42.1873 126.102 42.5842 125.808 42.8768C125.515 43.1695 125.116 43.3339 124.701 43.3339Z" fill="#E6E6E6"/>
<path d="M124.701 50.8964H47.8348C47.4194 50.8964 47.021 50.732 46.7273 50.4393C46.4336 50.1467 46.2686 49.7498 46.2686 49.3359C46.2686 48.922 46.4336 48.5251 46.7273 48.2325C47.021 47.9398 47.4194 47.7754 47.8348 47.7754H124.701C125.116 47.7754 125.515 47.9398 125.808 48.2325C126.102 48.5251 126.267 48.922 126.267 49.3359C126.267 49.7498 126.102 50.1467 125.808 50.4393C125.515 50.732 125.116 50.8964 124.701 50.8964Z" fill="#E6E6E6"/>
<path d="M124.701 58.4589H47.8348C47.4194 58.4589 47.021 58.2945 46.7273 58.0019C46.4336 57.7092 46.2686 57.3123 46.2686 56.8984C46.2686 56.4845 46.4336 56.0876 46.7273 55.795C47.021 55.5023 47.4194 55.3379 47.8348 55.3379H124.701C125.116 55.3379 125.515 55.5023 125.808 55.795C126.102 56.0876 126.267 56.4845 126.267 56.8984C126.267 57.3123 126.102 57.7092 125.808 58.0019C125.515 58.2945 125.116 58.4589 124.701 58.4589Z" fill="#E6E6E6"/>
<path d="M82.292 66.0214H47.8348C47.4194 66.0214 47.021 65.857 46.7273 65.5643C46.4336 65.2717 46.2686 64.8748 46.2686 64.4609C46.2686 64.047 46.4336 63.6501 46.7273 63.3575C47.021 63.0648 47.4194 62.9004 47.8348 62.9004H82.292C82.7074 62.9004 83.1058 63.0648 83.3995 63.3575C83.6932 63.6501 83.8583 64.047 83.8583 64.4609C83.8583 64.8748 83.6932 65.2717 83.3995 65.5643C83.1058 65.857 82.7074 66.0214 82.292 66.0214Z" fill="#41D400"/>
<path d="M86.673 77.9064H80.3301C80.2339 77.9055 80.1391 77.8831 80.0528 77.8407C79.9665 77.7983 79.8909 77.7371 79.8316 77.6616C79.7616 77.5728 79.7124 77.4696 79.6873 77.3595C79.6623 77.2493 79.6622 77.135 79.6869 77.0249L82.6717 63.5694C82.6954 63.4184 82.7719 63.2806 82.8877 63.1804C83.0035 63.0801 83.1511 63.0239 83.3045 63.0216C83.4579 63.0192 83.6071 63.071 83.7259 63.1677C83.8447 63.2644 83.9254 63.3998 83.9537 63.55L87.3117 77.0052C87.3398 77.1165 87.3423 77.2327 87.3191 77.3451C87.2958 77.4575 87.2474 77.5632 87.1774 77.6544C87.1182 77.732 87.042 77.795 86.9545 77.8387C86.8671 77.8824 86.7708 77.9056 86.673 77.9064Z" fill="#E6E6E6"/>
<path d="M166.387 82.947H7.83547C6.97274 82.947 6.14534 82.6055 5.53529 81.9977C4.92524 81.3899 4.58252 80.5655 4.58252 79.7059C4.58252 78.8463 4.92524 78.0219 5.53529 77.4141C6.14534 76.8063 6.97274 76.4648 7.83547 76.4648H166.387C167.25 76.4648 168.077 76.8063 168.687 77.4141C169.297 78.0219 169.64 78.8463 169.64 79.7059C169.64 80.5655 169.297 81.3899 168.687 81.9977C168.077 82.6055 167.25 82.947 166.387 82.947Z" fill="#F2F2F2"/>
<path d="M146.309 74.831L143.995 74.8308L142.895 65.9395L146.31 65.9397L146.309 74.831Z" fill="#FFB6B6"/>
<path d="M146.899 77.0661L139.439 77.0659V76.9718C139.439 76.2046 139.745 75.4688 140.289 74.9262C140.834 74.3837 141.573 74.0789 142.343 74.0788H142.343L143.705 73.0488L146.248 74.079L146.899 74.079L146.899 77.0661Z" fill="#008ADD"/>
<path d="M167.214 71.8346L165.143 72.8629L160.177 65.3945L163.234 63.877L167.214 71.8346Z" fill="#FFB6B6"/>
<path d="M168.742 73.5719L162.066 76.8874L162.024 76.8033C161.68 76.1165 161.624 75.322 161.869 74.5944C162.113 73.8668 162.638 73.2658 163.327 72.9235L163.327 72.9234L164.086 71.3959L166.822 71.1879L167.405 70.8984L168.742 73.5719Z" fill="#008ADD"/>
<path d="M145.284 34.4492L158.041 34.8941L158.995 36.6592C158.995 36.6592 159.995 43.8806 159.483 44.3904C158.971 44.9002 158.715 44.9002 158.971 45.7923C159.227 46.6845 159.888 55.2087 159.888 55.2087C159.888 55.2087 165.159 66.1002 165.414 66.7374C165.67 67.3747 165.926 67.1198 165.67 67.3747C165.444 67.6181 165.23 67.8734 165.031 68.1394H160.861C160.861 68.1394 158.616 62.4969 156.561 60.3144C154.746 58.3874 153.597 55.933 153.281 53.3094L151.552 45.1551L147.842 57.6452C147.842 57.6452 147.203 70.0079 147.331 70.6452L147.458 71.2824L142.544 71.3371C142.544 71.3371 142.032 70.2628 142.288 69.8805C142.544 69.4981 142.529 69.6025 142.217 68.9768C141.904 68.3511 142.032 67.2908 142.032 67.2908C142.032 67.2908 143.877 42.2237 143.877 41.8414C143.886 41.6446 143.85 41.4483 143.771 41.268V40.749L144.261 38.91L145.284 34.4492Z" fill="#2F2E41"/>
<path d="M150.785 11.3861C149.954 11.8779 149.457 12.7817 149.172 13.7013C148.644 15.4039 148.327 17.1642 148.226 18.9434L147.925 24.2699C147.775 27.7074 146.815 31.0616 145.123 34.0612C144.998 34.2895 144.926 34.5434 144.914 34.8035C144.902 35.0635 144.949 35.323 145.053 35.562C145.157 35.801 145.314 36.0133 145.512 36.1827C145.71 36.3522 145.945 36.4743 146.198 36.5399C150.822 37.7487 159.579 36.2309 159.579 36.2309C159.579 36.2309 159.952 36.1071 159.579 35.7354C159.206 35.3638 158.369 33.5055 158.369 33.5055L159.364 26.9953L160.607 13.8637C159.115 12.0055 156.114 10.91 156.114 10.91L155.339 9.51953L151.462 9.82853L150.785 11.3861Z" fill="#008ADD"/>
<path d="M153.246 8.71203C155.302 8.71203 156.97 7.05078 156.97 5.00152C156.97 2.95227 155.302 1.29102 153.246 1.29102C151.189 1.29102 149.521 2.95227 149.521 5.00152C149.521 7.05078 151.189 8.71203 153.246 8.71203Z" fill="#FFB8B8"/>
<path d="M157.834 4.78206C157.668 5.53386 157.368 6.24993 156.948 6.89643C156.837 7.11688 156.67 7.30509 156.465 7.44299C156.361 7.50948 156.237 7.53753 156.114 7.52226C155.992 7.50699 155.878 7.44936 155.794 7.35941L155.703 7.28587C155.881 7.17679 156.04 7.03961 156.173 6.87971C156.239 6.79947 156.285 6.70468 156.307 6.60323C156.329 6.50177 156.326 6.39657 156.299 6.29638C156.267 6.19757 156.197 6.11503 156.105 6.0661C156.013 6.01717 155.906 6.00566 155.806 6.03398C155.588 6.11922 155.455 6.43345 155.227 6.38498C155.042 6.34486 155.004 6.10251 155.004 5.91196C155.011 4.91578 154.527 3.50008 154.153 3.54354C153.775 3.56412 153.397 3.51366 153.038 3.39478C152.678 3.27569 152.299 3.22744 151.92 3.2527C151.894 3.25605 151.867 3.26106 151.838 3.26607C151.778 3.07681 151.694 2.89553 151.59 2.7262C151.602 2.93061 151.592 3.13568 151.56 3.33795C151.259 3.46151 150.948 3.55936 150.63 3.63045C150.285 3.67892 149.525 4.70853 149.49 4.60322C149.429 4.41395 149.346 4.23268 149.241 4.06335C149.253 4.26776 149.243 4.47283 149.211 4.6751C149.209 4.68345 149.209 4.69014 149.208 4.6985C149.04 4.47618 148.938 4.20542 148.995 4.41268C148.433 3.14574 148.651 2.23815 149.535 1.1701C149.707 0.940443 149.935 0.758132 150.198 0.640242C150.329 0.582745 150.473 0.559923 150.616 0.573976C150.759 0.58803 150.895 0.638485 151.013 0.720479C151.373 0.391094 151.816 0.163777 152.294 0.0620915C152.773 -0.0395941 153.27 -0.0119509 153.734 0.142157C154.655 0.461406 155.365 0.648607 155.505 1.61136C155.89 1.56949 156.278 1.63672 156.626 1.80529C156.973 1.97386 157.266 2.2369 157.47 2.56407C157.867 3.23149 157.997 4.02343 157.834 4.78206Z" fill="#2F2E41"/>
<path d="M161.808 28.8929L161.814 21.4434L156.554 21.8347L158.105 26.5331L153.34 35.037C152.988 35.1157 152.666 35.2948 152.415 35.5524C152.163 35.81 151.992 36.135 151.923 36.4878C151.853 36.8406 151.888 37.2059 152.023 37.5392C152.159 37.8725 152.388 38.1594 152.684 38.3649C152.98 38.5704 153.33 38.6856 153.691 38.6965C154.052 38.7073 154.408 38.6134 154.716 38.4262C155.024 38.2389 155.27 37.9664 155.426 37.6419C155.581 37.3174 155.638 36.9548 155.59 36.5985L161.808 28.8929Z" fill="#FFB6B6"/>
<path d="M160.233 13.5144C162.292 14.3978 162.757 27.7401 162.294 27.6644C160.979 27.4492 158.339 26.2016 157.55 26.5712C157.099 26.7825 156.603 22.9552 156.603 22.9552C156.603 22.9552 156.125 20.8122 155.565 18.0429C155.392 17.2629 155.42 16.452 155.646 15.6857C155.872 14.9194 156.289 14.2225 156.858 13.66C156.858 13.66 158.174 12.631 160.233 13.5144Z" fill="#008ADD"/>
<path d="M33.0927 95.8366C32.9563 95.7127 32.849 95.5605 32.7781 95.3907C32.7072 95.2209 32.6745 95.0377 32.6824 94.854C32.6903 94.6703 32.7385 94.4906 32.8236 94.3274C32.9087 94.1643 33.0287 94.0218 33.1751 93.9098L31.7617 89.668L34.013 90.2706L35.01 94.2063C35.1824 94.4638 35.2541 94.7754 35.2114 95.082C35.1686 95.3887 35.0145 95.669 34.7781 95.87C34.5418 96.0709 34.2397 96.1785 33.929 96.1724C33.6184 96.1662 33.3208 96.0468 33.0927 95.8366Z" fill="#FFB6B6"/>
<path d="M37.1729 72.7899C37.5465 73.0033 39.7566 72.4746 40.1882 72.625C39.95 74.0735 41.2441 73.5299 39.8388 75.4321C38.4335 77.3343 35.6031 83.0376 34.9601 85.1691C34.3171 87.3007 34.9535 90.3046 34.8572 91.3149C34.8107 91.9002 34.8136 92.4884 34.8659 93.0733C34.1066 93.0637 33.3582 93.2207 32.5871 93.1204C31.7648 90.802 31.2118 87.5019 30.8364 85.678C30.4609 83.8542 30.4472 84.6255 30.6194 83.7135C30.7916 82.8015 30.8333 83.4643 30.6524 82.5918C30.4715 81.7193 31.2031 80.6232 31.879 79.9981C32.1705 79.1629 32.5471 78.3841 32.8357 77.5577C34.9501 75.7199 35.0891 74.6583 37.1729 72.7899Z" fill="#3F3D56"/>
<path d="M56.9637 93.148C56.781 93.174 56.5948 93.1599 56.4182 93.1065C56.2416 93.0531 56.0789 92.9618 55.9415 92.839C55.8042 92.7162 55.6955 92.5649 55.6232 92.3957C55.5509 92.2266 55.5167 92.0437 55.523 91.8599L51.3379 90.251L53.2357 88.9023L56.919 90.6369C57.2282 90.668 57.5152 90.8109 57.7256 91.0387C57.936 91.2664 58.0553 91.5632 58.0608 91.8727C58.0663 92.1822 57.9576 92.483 57.7554 92.718C57.5532 92.9531 57.2715 93.1061 56.9637 93.148Z" fill="#FFB6B6"/>
<path d="M41.6992 75.3617C42.102 75.21 43.097 73.1739 43.4879 72.9375C44.4588 74.0414 44.8602 72.7005 45.4409 74.9905C46.0217 77.2804 48.6419 83.0825 49.8849 84.9319C51.1279 86.7813 53.8601 88.201 54.5817 88.9172C55.0056 89.325 55.4632 89.6966 55.9497 90.0281C55.4597 90.6061 55.1057 91.2815 54.5379 91.8109C52.2187 90.9699 49.3102 89.2977 47.6583 88.4273C46.0064 87.5569 46.5954 88.0577 45.9981 87.3456C45.4009 86.6335 45.9409 87.0227 45.1499 86.6073C44.3589 86.1919 43.9745 84.9324 43.9198 84.0152C43.4579 83.2602 43.0938 82.4755 42.6368 81.7283C42.5567 78.9338 41.8225 78.1521 41.6992 75.3617Z" fill="#3F3D56"/>
<path d="M44.848 87.9622L46.9366 97.2486L33.5527 96.4191L37.1922 87.2988L44.848 87.9622Z" fill="#FFB6B6"/>
<path d="M42.6194 130.823L44.1227 130.822L44.8379 125.045H42.6191L42.6194 130.823Z" fill="#FFB6B6"/>
<path d="M42.1102 130.085L44.4868 129.943V130.958L46.7463 132.513C46.8579 132.589 46.9419 132.7 46.9861 132.827C47.0304 132.955 47.0325 133.094 46.9921 133.223C46.9517 133.352 46.871 133.464 46.7618 133.545C46.6525 133.625 46.5205 133.668 46.3848 133.668H43.5555L43.0678 132.664L42.8773 133.668H41.8105L42.1102 130.085Z" fill="#008ADD"/>
<path d="M28.4102 130.078L29.8793 130.395L31.8077 124.9L29.6393 124.432L28.4102 130.078Z" fill="#FFB6B6"/>
<path d="M28.0699 129.248L30.4225 129.612L30.2067 130.603L32.084 132.6C32.1767 132.699 32.2354 132.824 32.2514 132.958C32.2674 133.093 32.24 133.228 32.1731 133.346C32.1062 133.463 32.0034 133.557 31.8796 133.612C31.7558 133.667 31.6175 133.681 31.485 133.653L28.7199 133.055L28.4568 131.971L28.0572 132.912L27.0146 132.686L28.0699 129.248Z" fill="#008ADD"/>
<path d="M47.2782 105.014C46.2231 110.792 45.9593 113.286 45.9593 113.286C45.9593 113.286 46.7506 114.205 46.2231 114.731C45.6955 115.257 46.2231 116.306 46.2231 116.306L45.0368 129.043L44.0819 128.889L41.7816 128.52L40.952 128.387L41.4795 116.438C41.4795 116.438 40.952 115.387 41.2158 115.124C41.4795 114.862 40.952 113.286 40.952 113.286L40.2933 100.812L36.207 114.468C36.207 114.468 36.6034 114.994 36.207 115.387C35.812 115.781 35.0222 117.751 35.0222 117.751L32.5922 126.223L32.3859 126.942L31.1186 126.706L29.7393 126.447L29.4859 126.4L29.0349 126.315L28.7446 126.261L28.6459 126.243L28.1685 126.154L28.3129 125.515L28.388 125.179L30.4437 116.082L30.4909 115.872L30.541 115.65C30.541 115.65 30.2772 114.994 30.6721 114.599C30.7876 114.478 30.872 114.332 30.918 114.172C30.964 114.012 30.9701 113.843 30.9359 113.68C30.923 113.666 30.9111 113.651 30.9005 113.636C30.8539 113.572 30.8217 113.499 30.8062 113.421C30.7879 113.298 30.8025 113.172 30.8486 113.056C30.8946 112.94 30.9705 112.838 31.0685 112.761C31.1436 112.681 31.2067 112.591 31.2557 112.493C31.6565 111.737 31.8584 110.135 31.8584 110.135C31.8584 110.135 32.215 97.4485 33.3821 95.5104C33.444 95.4091 34.6829 93.4643 34.7478 93.4246C36.0652 92.6377 46.329 93.7246 46.329 93.7246C46.329 93.7246 46.9506 95.3886 46.9786 95.5618C47.1304 96.5353 48.1726 100.113 47.2782 105.014Z" fill="#2F2E41"/>
<path d="M44.1598 74.4547C44.1598 74.4547 44.3819 73.3061 42.2479 71.1799C41.1181 70.8047 39.1605 71.0234 38.4819 71.1799C35.3436 75.3073 35.9055 74.5791 35.0886 76.8852C34.8729 77.4039 34.7958 77.9695 34.865 78.5268C35.2416 80.4029 35.853 90.0334 35.7274 90.5337C35.6019 91.034 34.7232 91.6593 35.6019 91.6593C36.4806 91.6593 47.8126 91.4617 47.5615 91.0865C47.3105 90.7113 44.1598 74.4547 44.1598 74.4547Z" fill="#3F3D56"/>
<path d="M40.6203 70.4595C42.6082 70.4595 44.2197 68.8539 44.2197 66.8733C44.2197 64.8927 42.6082 63.2871 40.6203 63.2871C38.6325 63.2871 37.021 64.8927 37.021 66.8733C37.021 68.8539 38.6325 70.4595 40.6203 70.4595Z" fill="#FFB6B6"/>
<path d="M37.5709 68.2277C37.5513 68.6626 37.2777 69.0376 37.0665 69.4183C36.6981 70.0978 36.5016 70.8566 36.4939 71.6288C36.4862 72.401 36.6675 73.1635 37.0222 73.8501C37.316 74.4054 37.7228 74.9009 37.9559 75.484C38.0681 75.7303 38.125 75.998 38.1224 76.2685C38.1199 76.5389 38.0581 76.8056 37.9413 77.0497C37.3104 76.4449 37.0026 76.7643 36.2862 76.2363C36.5679 77.023 36.3277 77.0486 36.6106 77.8345C35.3946 78.1804 34.1783 78.5272 32.9615 78.8749C33.7085 78.2708 34.2361 77.4392 34.4634 76.5077C34.6906 75.5761 34.605 74.5961 34.2196 73.7177C33.7748 72.7673 32.9798 71.984 32.6903 70.9742C32.5328 70.4278 32.5356 69.8477 32.6985 69.3028C32.8614 68.7579 33.1775 68.2708 33.6095 67.8993C34.0415 67.5277 34.5712 67.2872 35.1361 67.2062C35.7009 67.1251 36.2773 67.207 36.7969 67.442C37.206 67.3256 37.5907 67.7997 37.5709 68.2277Z" fill="#2F2E41"/>
<path d="M42.0917 62.8529C41.6077 61.7992 40.3306 62.0136 39.1758 62.1526C38.5992 62.2412 38.0529 62.4686 37.5844 62.815C37.1158 63.1614 36.7391 63.6165 36.4869 64.1406C35.9933 65.203 35.899 66.4066 36.221 67.5324C36.3937 68.2992 36.806 68.9917 37.3986 69.5104C38.0084 69.999 40.8753 71.1547 41.1139 70.1596C40.8156 71.4578 40.0393 72.197 40.9278 73.1921C41.388 71.8148 43.3339 70.5066 43.794 69.1293C43.8633 68.922 43.5789 66.4854 43.6481 66.2781C43.7941 65.8411 43.9404 65.4033 44.0459 64.9549C44.1784 64.3916 44.2294 63.7457 43.8782 63.2849C43.527 62.8241 42.6423 62.8061 42.4648 63.357" fill="#2F2E41"/>
<path d="M41.5123 67.2391L41.3584 66.2633C41.463 65.0495 41.2923 63.119 42.0917 62.8535L42.5807 63.3406C42.2714 63.4434 41.6832 65.2584 41.5123 67.2391Z" fill="#FF6584"/>
<path d="M76.5745 133.713C76.5746 133.751 76.5672 133.788 76.5529 133.823C76.5385 133.858 76.5174 133.889 76.4907 133.916C76.4641 133.942 76.4324 133.963 76.3976 133.978C76.3627 133.992 76.3254 133.999 76.2877 133.999H8.74914C8.67309 133.999 8.60016 133.969 8.54639 133.915C8.49261 133.862 8.4624 133.789 8.4624 133.713C8.4624 133.638 8.49261 133.565 8.54639 133.511C8.60016 133.458 8.67309 133.428 8.74914 133.428H76.2877C76.3254 133.428 76.3627 133.435 76.3976 133.449C76.4324 133.464 76.4641 133.485 76.4907 133.511C76.5174 133.538 76.5385 133.569 76.5529 133.604C76.5672 133.639 76.5746 133.676 76.5745 133.713Z" fill="#CCCCCC"/>
<path d="M111.93 115.959H62.2924C61.2699 115.959 60.2892 116.364 59.5662 117.084C58.8432 117.804 58.437 118.781 58.437 119.8C58.437 120.819 58.8432 121.796 59.5662 122.516C60.2892 123.237 61.2699 123.641 62.2924 123.641H111.93C112.953 123.641 113.933 123.237 114.656 122.516C115.379 121.796 115.785 120.819 115.785 119.8C115.785 118.781 115.379 117.804 114.656 117.084C113.933 116.364 112.953 115.959 111.93 115.959Z" fill="#E6E6E6"/>
</svg>
