<svg width="82" height="76" viewBox="0 0 82 76" fill="none" xmlns="http://www.w3.org/2000/svg">
<path d="M71.1525 64.1317C73.5415 64.1317 75.4777 66.0163 75.4777 68.3403C75.4777 70.6656 73.5415 72.5488 71.1525 72.5488C68.7635 72.5488 66.8274 70.6656 66.8274 68.3403C66.8274 66.0163 68.7635 64.1317 71.1525 64.1317ZM45.8927 64.1317C48.2803 64.1317 50.2165 66.0163 50.2165 68.3403C50.2165 70.6656 48.2803 72.5488 45.8927 72.5488C43.5037 72.5488 41.5676 70.6656 41.5676 68.3403C41.5676 66.0163 43.5037 64.1317 45.8927 64.1317ZM76.1406 20.1125L68.4527 40.5971H37.5177L28.7325 20.1125H76.1406Z" fill="#008ADD"/>
<ellipse cx="71.4717" cy="68.239" rx="4.66898" ry="4.30983" fill="#41D400"/>
<ellipse cx="45.6123" cy="68.239" rx="4.66898" ry="4.30983" fill="#41D400"/>
<path d="M39.6675 60.1178C43.8655 60.1206 47.2468 63.4422 47.2483 67.519L39.6675 60.1178ZM39.6675 60.1178C35.4697 60.1206 32.0895 63.4421 32.0867 67.5191C32.0895 71.5964 35.4699 74.9192 39.6677 74.922C43.8654 74.9204 47.2468 71.5977 47.2483 67.5193L39.6675 60.1178ZM17.0847 0.5H0.499718V2.73005H15.0647H15.4218L15.5377 3.06776L29.1936 42.8636H67.3622H67.6476L67.7928 43.1093L73.7843 53.2567L74.2296 54.0109H73.3538H28.5975V56.2452H78.199L69.6988 41.8417L69.5789 41.6386L69.6594 41.4169L80.4134 11.8123H35.4862V14.0452H76.4457H77.1593L76.9156 14.7159L67.62 40.3057L67.5003 40.6349H67.15H31.2136H30.8565L30.7406 40.2972L17.0847 0.5ZM70.2848 67.5183L70.2847 67.52C70.28 70.385 67.9143 72.6844 65.0103 72.6891H65.0086C62.1106 72.6844 59.7403 70.3867 59.7356 67.52L59.7356 67.5183C59.7403 64.6542 62.1108 62.3568 65.0086 62.3521L65.0103 62.3521C67.914 62.3568 70.28 64.6544 70.2848 67.5183ZM72.5931 67.5192C72.5903 63.4423 69.2075 60.1206 65.0095 60.1178C60.8128 60.1206 57.4315 63.4423 57.4315 67.5192C57.4315 71.5962 60.813 74.9192 65.0096 74.922C69.2074 74.9204 72.5903 71.5976 72.5931 67.5192ZM39.6667 62.3521L39.6683 62.3521C42.5693 62.3568 44.9366 64.6544 44.9414 67.5183L44.9414 67.52C44.9366 70.385 42.5696 72.6844 39.6683 72.6891H39.6667C36.7658 72.6844 34.397 70.3867 34.3922 67.52L34.3922 67.5183C34.397 64.6542 36.766 62.3568 39.6667 62.3521Z" stroke="black"/>
</svg>
