<svg width="92" height="88" viewBox="0 0 92 88" fill="none" xmlns="http://www.w3.org/2000/svg">
<path d="M54.5938 51.0312H81.1562C82.0187 51.0312 82.7188 51.7313 82.7188 52.5938V57.2812C82.7188 58.1438 82.0187 58.8438 81.1562 58.8438H54.5938C53.7313 58.8438 53.0312 58.1438 53.0312 57.2812V52.5938C53.0312 51.7313 53.7313 51.0312 54.5938 51.0312Z" fill="#008ADD"/>
<path d="M81.1562 59.625H54.5938C53.3016 59.625 52.25 58.5734 52.25 57.2812V52.5938C52.25 51.3016 53.3016 50.25 54.5938 50.25H81.1562C82.4484 50.25 83.5 51.3016 83.5 52.5938V57.2812C83.5 58.5734 82.4484 59.625 81.1562 59.625ZM54.5938 51.8125C54.1641 51.8125 53.8125 52.1625 53.8125 52.5938V57.2812C53.8125 57.7125 54.1641 58.0625 54.5938 58.0625H81.1562C81.5859 58.0625 81.9375 57.7125 81.9375 57.2812V52.5938C81.9375 52.1625 81.5859 51.8125 81.1562 51.8125H54.5938Z" fill="#263238"/>
<path d="M59.2812 70.5625H53.0312C52.6 70.5625 52.25 70.2125 52.25 69.7812V63.5312C52.25 63.1 52.6 62.75 53.0312 62.75H59.2812C59.7125 62.75 60.0625 63.1 60.0625 63.5312V69.7812C60.0625 70.2125 59.7125 70.5625 59.2812 70.5625ZM53.8125 69H58.5V64.3125H53.8125V69Z" fill="#263238"/>
<path d="M65.5312 70.5625H59.2812C58.85 70.5625 58.5 70.2125 58.5 69.7812V63.5312C58.5 63.1 58.85 62.75 59.2812 62.75H65.5312C65.9625 62.75 66.3125 63.1 66.3125 63.5312V69.7812C66.3125 70.2125 65.9625 70.5625 65.5312 70.5625ZM60.0625 69H64.75V64.3125H60.0625V69Z" fill="#263238"/>
<path d="M71.7812 70.5625H65.5312C65.1 70.5625 64.75 70.2125 64.75 69.7812V63.5312C64.75 63.1 65.1 62.75 65.5312 62.75H71.7812C72.2125 62.75 72.5625 63.1 72.5625 63.5312V69.7812C72.5625 70.2125 72.2125 70.5625 71.7812 70.5625ZM66.3125 69H71V64.3125H66.3125V69Z" fill="#263238"/>
<path d="M82.7188 70.5625H76.4688C76.0375 70.5625 75.6875 70.2125 75.6875 69.7812V63.5312C75.6875 63.1 76.0375 62.75 76.4688 62.75H82.7188C83.15 62.75 83.5 63.1 83.5 63.5312V69.7812C83.5 70.2125 83.15 70.5625 82.7188 70.5625ZM77.25 69H81.9375V64.3125H77.25V69Z" fill="#263238"/>
<path d="M59.2812 76.8125H53.0312C52.6 76.8125 52.25 76.4625 52.25 76.0312V69.7812C52.25 69.35 52.6 69 53.0312 69H59.2812C59.7125 69 60.0625 69.35 60.0625 69.7812V76.0312C60.0625 76.4625 59.7125 76.8125 59.2812 76.8125ZM53.8125 75.25H58.5V70.5625H53.8125V75.25Z" fill="#263238"/>
<path d="M65.5312 76.8125H59.2812C58.85 76.8125 58.5 76.4625 58.5 76.0312V69.7812C58.5 69.35 58.85 69 59.2812 69H65.5312C65.9625 69 66.3125 69.35 66.3125 69.7812V76.0312C66.3125 76.4625 65.9625 76.8125 65.5312 76.8125ZM60.0625 75.25H64.75V70.5625H60.0625V75.25Z" fill="#263238"/>
<path d="M71.7812 76.8125H65.5312C65.1 76.8125 64.75 76.4625 64.75 76.0312V69.7812C64.75 69.35 65.1 69 65.5312 69H71.7812C72.2125 69 72.5625 69.35 72.5625 69.7812V76.0312C72.5625 76.4625 72.2125 76.8125 71.7812 76.8125ZM66.3125 75.25H71V70.5625H66.3125V75.25Z" fill="#263238"/>
<path d="M82.7188 76.8125H76.4688C76.0375 76.8125 75.6875 76.4625 75.6875 76.0312V69.7812C75.6875 69.35 76.0375 69 76.4688 69H82.7188C83.15 69 83.5 69.35 83.5 69.7812V76.0312C83.5 76.4625 83.15 76.8125 82.7188 76.8125ZM77.25 75.25H81.9375V70.5625H77.25V75.25Z" fill="#263238"/>
<path d="M59.2812 83.0625H53.0312C52.6 83.0625 52.25 82.7125 52.25 82.2812V76.0312C52.25 75.6 52.6 75.25 53.0312 75.25H59.2812C59.7125 75.25 60.0625 75.6 60.0625 76.0312V82.2812C60.0625 82.7125 59.7125 83.0625 59.2812 83.0625ZM53.8125 81.5H58.5V76.8125H53.8125V81.5Z" fill="#263238"/>
<path d="M65.5312 83.0625H59.2812C58.85 83.0625 58.5 82.7125 58.5 82.2812V76.0312C58.5 75.6 58.85 75.25 59.2812 75.25H65.5312C65.9625 75.25 66.3125 75.6 66.3125 76.0312V82.2812C66.3125 82.7125 65.9625 83.0625 65.5312 83.0625ZM60.0625 81.5H64.75V76.8125H60.0625V81.5Z" fill="#263238"/>
<path d="M71.7812 83.0625H65.5312C65.1 83.0625 64.75 82.7125 64.75 82.2812V76.0312C64.75 75.6 65.1 75.25 65.5312 75.25H71.7812C72.2125 75.25 72.5625 75.6 72.5625 76.0312V82.2812C72.5625 82.7125 72.2125 83.0625 71.7812 83.0625ZM66.3125 81.5H71V76.8125H66.3125V81.5Z" fill="#263238"/>
<path d="M82.7188 83.0625H76.4688C76.0375 83.0625 75.6875 82.7125 75.6875 82.2812V76.0312C75.6875 75.6 76.0375 75.25 76.4688 75.25H82.7188C83.15 75.25 83.5 75.6 83.5 76.0312V82.2812C83.5 82.7125 83.15 83.0625 82.7188 83.0625ZM77.25 81.5H81.9375V76.8125H77.25V81.5Z" fill="#263238"/>
<path d="M83.5 87.75H52.25C49.6656 87.75 47.5625 85.6469 47.5625 83.0625V50.25C47.5625 47.6656 49.6656 45.5625 52.25 45.5625H83.5C86.0844 45.5625 88.1875 47.6656 88.1875 50.25V83.0625C88.1875 85.6469 86.0844 87.75 83.5 87.75ZM52.25 47.125C50.5266 47.125 49.125 48.5266 49.125 50.25V83.0625C49.125 84.7859 50.5266 86.1875 52.25 86.1875H83.5C85.2234 86.1875 86.625 84.7859 86.625 83.0625V50.25C86.625 48.5266 85.2234 47.125 83.5 47.125H52.25Z" fill="#263238"/>
<path d="M73.3438 44C70.3281 44 67.875 41.5469 67.875 38.5312V5.71875C67.875 3.56562 66.1234 1.8125 63.9688 1.8125C63.5375 1.8125 63.1875 1.4625 63.1875 1.03125C63.1875 0.6 63.5375 0.25 63.9688 0.25C66.9844 0.25 69.4375 2.70469 69.4375 5.71875V38.5312C69.4375 40.6844 71.1891 42.4375 73.3438 42.4375C73.775 42.4375 74.125 42.7875 74.125 43.2188C74.125 43.65 73.775 44 73.3438 44Z" fill="#263238"/>
<path d="M73.3438 44C72.9125 44 72.5625 43.65 72.5625 43.2188C72.5625 42.7875 72.9125 42.4375 73.3438 42.4375C75.4984 42.4375 77.25 40.6844 77.25 38.5312V17.4375H71C70.5688 17.4375 70.2188 17.0875 70.2188 16.6562C70.2188 16.225 70.5688 15.875 71 15.875H78.0312C78.4625 15.875 78.8125 16.225 78.8125 16.6562V38.5312C78.8125 41.5453 76.3594 44 73.3438 44Z" fill="#263238"/>
<path d="M37.4062 40.875H21.7812C21.35 40.875 21 40.525 21 40.0938C21 39.6625 21.35 39.3125 21.7812 39.3125H37.4062C37.8375 39.3125 38.1875 39.6625 38.1875 40.0938C38.1875 40.525 37.8375 40.875 37.4062 40.875Z" fill="#263238"/>
<path d="M37.4062 45.5625H21.7812C21.35 45.5625 21 45.2125 21 44.7812C21 44.35 21.35 44 21.7812 44H37.4062C37.8375 44 38.1875 44.35 38.1875 44.7812C38.1875 45.2125 37.8375 45.5625 37.4062 45.5625Z" fill="#263238"/>
<path d="M37.4062 50.25H21.7812C21.35 50.25 21 49.9 21 49.4688C21 49.0375 21.35 48.6875 21.7812 48.6875H37.4062C37.8375 48.6875 38.1875 49.0375 38.1875 49.4688C38.1875 49.9 37.8375 50.25 37.4062 50.25Z" fill="#263238"/>
<path d="M43.6562 60.4062H21.7812C21.35 60.4062 21 60.0562 21 59.625C21 59.1938 21.35 58.8438 21.7812 58.8438H43.6562C44.0875 58.8438 44.4375 59.1938 44.4375 59.625C44.4375 60.0562 44.0875 60.4062 43.6562 60.4062Z" fill="#263238"/>
<path d="M43.6562 68.2188H21.7812C21.35 68.2188 21 67.8687 21 67.4375C21 67.0063 21.35 66.6562 21.7812 66.6562H43.6562C44.0875 66.6562 44.4375 67.0063 44.4375 67.4375C44.4375 67.8687 44.0875 68.2188 43.6562 68.2188Z" fill="#263238"/>
<path d="M13.9688 36.7734C20.8723 36.7734 26.4688 31.177 26.4688 24.2734C26.4688 17.3699 20.8723 11.7734 13.9688 11.7734C7.06519 11.7734 1.46875 17.3699 1.46875 24.2734C1.46875 31.177 7.06519 36.7734 13.9688 36.7734Z" fill="#41D400"/>
<path d="M13.9688 37.5547C6.64531 37.5547 0.6875 31.5969 0.6875 24.2734C0.6875 16.95 6.64531 10.9922 13.9688 10.9922C21.2922 10.9922 27.25 16.95 27.25 24.2734C27.25 31.5969 21.2922 37.5547 13.9688 37.5547ZM13.9688 12.5547C7.50625 12.5547 2.25 17.8109 2.25 24.2734C2.25 30.7359 7.50625 35.9922 13.9688 35.9922C20.4312 35.9922 25.6875 30.7359 25.6875 24.2734C25.6875 17.8109 20.4312 12.5547 13.9688 12.5547Z" fill="#263238"/>
<path d="M13.9688 79.9375C13.8688 79.9375 13.7656 79.9188 13.6703 79.8781C13.3781 79.7578 13.1875 79.4719 13.1875 79.1563V39.8984C13.1875 39.4672 13.5375 39.1172 13.9688 39.1172C14.4 39.1172 14.75 39.4672 14.75 39.8984V77.2703L17.3219 74.6984C17.6266 74.3938 18.1219 74.3938 18.4266 74.6984L21.7797 78.0516L25.1328 74.6984C25.4375 74.3938 25.9328 74.3938 26.2375 74.6984L29.5906 78.0516L32.9438 74.6984C33.2484 74.3938 33.7438 74.3938 34.0484 74.6984L37.4016 78.0516L40.7547 74.6984C41.0594 74.3938 41.5547 74.3938 41.8594 74.6984L45.7656 78.6047C46.0703 78.9094 46.0703 79.4047 45.7656 79.7094C45.4609 80.0141 44.9656 80.0141 44.6609 79.7094L41.3125 76.3547L37.9594 79.7078C37.6547 80.0125 37.1594 80.0125 36.8547 79.7078L33.5 76.3547L30.1469 79.7078C29.8422 80.0125 29.3469 80.0125 29.0422 79.7078L25.6875 76.3547L22.3344 79.7078C22.0297 80.0125 21.5344 80.0125 21.2297 79.7078L17.875 76.3547L14.5219 79.7078C14.3719 79.8578 14.1719 79.9375 13.9688 79.9375Z" fill="#263238"/>
<path d="M59.2812 44C58.85 44 58.5 43.65 58.5 43.2188V5.71875C58.5 4.18906 59.1297 2.80625 60.1453 1.8125H18.6562C16.5016 1.8125 14.75 3.56562 14.75 5.71875V8.64844C14.75 9.07969 14.4 9.42969 13.9688 9.42969C13.5375 9.42969 13.1875 9.07969 13.1875 8.64844V5.71875C13.1875 2.70312 15.6406 0.25 18.6562 0.25H63.9688C64.4 0.25 64.75 0.6 64.75 1.03125C64.75 1.4625 64.4 1.8125 63.9688 1.8125C61.8141 1.8125 60.0625 3.56562 60.0625 5.71875V43.2188C60.0625 43.65 59.7125 44 59.2812 44Z" fill="#263238"/>
<path d="M13.9688 21.1484C13.5375 21.1484 13.1875 20.7984 13.1875 20.3672V18.0234C13.1875 17.5922 13.5375 17.2422 13.9688 17.2422C14.4 17.2422 14.75 17.5922 14.75 18.0234V20.3672C14.75 20.7984 14.4 21.1484 13.9688 21.1484Z" fill="#263238"/>
<path d="M13.9688 31.3047C13.5375 31.3047 13.1875 30.9547 13.1875 30.5234V28.1797C13.1875 27.7484 13.5375 27.3984 13.9688 27.3984C14.4 27.3984 14.75 27.7484 14.75 28.1797V30.5234C14.75 30.9547 14.4 31.3047 13.9688 31.3047Z" fill="#263238"/>
<path d="M15.1406 28.9609H10.8438C10.4125 28.9609 10.0625 28.6109 10.0625 28.1797C10.0625 27.7484 10.4125 27.3984 10.8438 27.3984H15.1406C15.7859 27.3984 16.3125 26.8734 16.3125 26.2266C16.3125 25.5797 15.7859 25.0547 15.1406 25.0547H12.7969C11.2891 25.0547 10.0625 23.8281 10.0625 22.3203C10.0625 20.8125 11.2891 19.5859 12.7969 19.5859H16.3125C16.7438 19.5859 17.0938 19.9359 17.0938 20.3672C17.0938 20.7984 16.7438 21.1484 16.3125 21.1484H12.7969C12.1516 21.1484 11.625 21.6734 11.625 22.3203C11.625 22.9672 12.1516 23.4922 12.7969 23.4922H15.1406C16.6484 23.4922 17.875 24.7188 17.875 26.2266C17.875 27.7344 16.6484 28.9609 15.1406 28.9609Z" fill="#263238"/>
<path d="M40.5312 86.1875H24.9062C24.475 86.1875 24.125 85.8375 24.125 85.4062C24.125 84.975 24.475 84.625 24.9062 84.625H40.5312C40.9625 84.625 41.3125 84.975 41.3125 85.4062C41.3125 85.8375 40.9625 86.1875 40.5312 86.1875Z" fill="#263238"/>
<path d="M21.7812 86.1875H20.2188C19.7875 86.1875 19.4375 85.8375 19.4375 85.4062C19.4375 84.975 19.7875 84.625 20.2188 84.625H21.7812C22.2125 84.625 22.5625 84.975 22.5625 85.4062C22.5625 85.8375 22.2125 86.1875 21.7812 86.1875Z" fill="#263238"/>
<path d="M90.5312 12.75H84.2812C83.85 12.75 83.5 12.4 83.5 11.9688C83.5 11.5375 83.85 11.1875 84.2812 11.1875H90.5312C90.9625 11.1875 91.3125 11.5375 91.3125 11.9688C91.3125 12.4 90.9625 12.75 90.5312 12.75Z" fill="#263238"/>
<path d="M81.1562 4.9375H74.9062C74.475 4.9375 74.125 4.5875 74.125 4.15625C74.125 3.725 74.475 3.375 74.9062 3.375H81.1562C81.5875 3.375 81.9375 3.725 81.9375 4.15625C81.9375 4.5875 81.5875 4.9375 81.1562 4.9375Z" fill="#263238"/>
<path d="M78.0312 8.0625C77.6 8.0625 77.25 7.7125 77.25 7.28125V1.03125C77.25 0.6 77.6 0.25 78.0312 0.25C78.4625 0.25 78.8125 0.6 78.8125 1.03125V7.28125C78.8125 7.7125 78.4625 8.0625 78.0312 8.0625Z" fill="#263238"/>
<path d="M87.4062 15.875C86.975 15.875 86.625 15.525 86.625 15.0938V8.84375C86.625 8.4125 86.975 8.0625 87.4062 8.0625C87.8375 8.0625 88.1875 8.4125 88.1875 8.84375V15.0938C88.1875 15.525 87.8375 15.875 87.4062 15.875Z" fill="#263238"/>
<path d="M53.0312 15.875H37.4062C36.975 15.875 36.625 15.525 36.625 15.0938V8.84375C36.625 8.4125 36.975 8.0625 37.4062 8.0625H53.0312C53.4625 8.0625 53.8125 8.4125 53.8125 8.84375V15.0938C53.8125 15.525 53.4625 15.875 53.0312 15.875ZM38.1875 14.3125H52.25V9.625H38.1875V14.3125Z" fill="#263238"/>
</svg>
