<svg width="231" height="204" viewBox="0 0 231 204" fill="none" xmlns="http://www.w3.org/2000/svg">
<path d="M225.645 187.576H207.562V187.713H225.645V187.576Z" fill="#EBEBEB"/>
<path d="M160.846 189.061H156.101V189.197H160.846V189.061Z" fill="#EBEBEB"/>
<path d="M207.016 182.509H196.538V182.645H207.016V182.509Z" fill="#EBEBEB"/>
<path d="M32.2248 183.426H8.64307V183.562H32.2248V183.426Z" fill="#EBEBEB"/>
<path d="M40.5458 183.426H37.0896V183.562H40.5458V183.426Z" fill="#EBEBEB"/>
<path d="M102.932 185.73H51.7825V185.867H102.932V185.73Z" fill="#EBEBEB"/>
<path d="M109.402 154.439H3.97475C3.14884 154.438 2.35725 154.109 1.77376 153.524C1.19027 152.939 0.862548 152.147 0.862549 151.321V3.12063C0.869739 2.29946 1.20063 1.51429 1.78335 0.935661C2.36607 0.357032 3.15355 0.0316801 3.97475 0.0302734H109.402C110.229 0.0302734 111.022 0.35874 111.606 0.943415C112.191 1.52809 112.52 2.32108 112.52 3.14793V151.321C112.52 152.148 112.191 152.941 111.606 153.526C111.022 154.111 110.229 154.439 109.402 154.439ZM3.97475 0.139474C3.18504 0.14092 2.42818 0.455643 1.87028 1.01456C1.31238 1.57348 0.999048 2.33093 0.999049 3.12063V151.321C0.999048 152.111 1.31238 152.869 1.87028 153.427C2.42818 153.986 3.18504 154.301 3.97475 154.303H109.402C110.192 154.301 110.95 153.987 111.508 153.428C112.067 152.869 112.382 152.112 112.383 151.321V3.12063C112.382 2.33042 112.067 1.57299 111.508 1.01423C110.95 0.455466 110.192 0.140917 109.402 0.139474H3.97475Z" fill="#EBEBEB"/>
<path d="M227.507 154.439H122.074C121.248 154.438 120.456 154.109 119.872 153.524C119.287 152.94 118.958 152.148 118.957 151.321V3.12063C118.965 2.29897 119.298 1.5138 119.881 0.935319C120.465 0.356841 121.253 0.0316648 122.074 0.0302734H227.507C228.327 0.0331151 229.113 0.359101 229.695 0.937577C230.276 1.51605 230.607 2.30041 230.614 3.12063V151.321C230.614 152.146 230.287 152.938 229.705 153.522C229.122 154.106 228.332 154.436 227.507 154.439ZM122.074 0.139474C121.284 0.140917 120.527 0.455466 119.968 1.01423C119.409 1.57299 119.095 2.33042 119.093 3.12063V151.321C119.095 152.112 119.409 152.869 119.968 153.428C120.527 153.987 121.284 154.301 122.074 154.303H227.507C228.297 154.301 229.055 153.987 229.613 153.428C230.172 152.869 230.487 152.112 230.488 151.321V3.12063C230.487 2.33042 230.172 1.57299 229.613 1.01423C229.055 0.455466 228.297 0.140917 227.507 0.139474H122.074Z" fill="#EBEBEB"/>
<path d="M61.5886 78.376H57.9141V178.927H61.5886V78.376Z" fill="#F5F5F5"/>
<path d="M76.1177 91.1416H72.4431V178.928H76.1177V91.1416Z" fill="#F5F5F5"/>
<path d="M90.5103 103.907H86.8357V178.928H90.5103V103.907Z" fill="#F5F5F5"/>
<path d="M104.908 95.3945H101.234V178.927H104.908V95.3945Z" fill="#F5F5F5"/>
<path d="M119.306 91.1416H115.632V178.928H119.306V91.1416Z" fill="#F5F5F5"/>
<path d="M133.699 82.6289H130.024V178.927H133.699V82.6289Z" fill="#F5F5F5"/>
<path d="M148.097 86.8877H144.422V178.927H148.097V86.8877Z" fill="#F5F5F5"/>
<path d="M162.495 82.6289H158.82V178.927H162.495V82.6289Z" fill="#F5F5F5"/>
<path d="M176.887 74.1172H173.213V178.922H176.887V74.1172Z" fill="#F5F5F5"/>
<path d="M191.285 65.6104H187.611V178.927H191.285V65.6104Z" fill="#F5F5F5"/>
<path d="M205.678 57.0986H202.003V178.928H205.678V57.0986Z" fill="#F5F5F5"/>
<path d="M88.6539 97.9281C88.4492 97.9199 88.2547 97.8363 88.1079 97.6933L57.3463 67.7015C57.1906 67.5495 57.1017 67.3418 57.0992 67.1242C57.0966 66.9066 57.1806 66.697 57.3326 66.5413C57.4847 66.3856 57.6924 66.2967 57.9099 66.2942C58.1275 66.2916 58.3372 66.3756 58.4929 66.5276L88.7577 96.0389L131.384 64.9169C131.549 64.7993 131.751 64.7465 131.953 64.7686C132.154 64.7908 132.34 64.8863 132.476 65.0371L146.432 80.8383L204.198 47.7398C204.292 47.6864 204.395 47.6519 204.502 47.6383C204.609 47.6248 204.717 47.6324 204.821 47.6608C204.925 47.6892 205.023 47.7378 205.108 47.8038C205.193 47.8698 205.264 47.952 205.318 48.0455C205.371 48.1391 205.406 48.2423 205.419 48.3492C205.433 48.4561 205.425 48.5646 205.397 48.6685C205.368 48.7724 205.32 48.8698 205.254 48.9549C205.188 49.0401 205.106 49.1114 205.012 49.1648L146.666 82.6019C146.502 82.6945 146.312 82.7282 146.126 82.6974C145.94 82.6666 145.771 82.5732 145.645 82.4326L131.744 66.7078L89.1562 97.7698C89.0108 97.8764 88.8342 97.9321 88.6539 97.9281Z" fill="#F0F0F0"/>
<path d="M85.1868 178.3L58.34 72.4247L59.6831 67.134H58.2854V36.8965H54.6818V67.134H53.284L54.6272 72.4247L27.7749 178.3H31.4932L54.6818 86.8555V178.857H58.2854V86.8555L81.474 178.3H85.1868Z" fill="#E0E0E0"/>
<path d="M76.7121 71.3729C79.3492 60.2 72.4295 49.0048 61.2565 46.3678C50.0836 43.7307 38.8884 50.6504 36.2514 61.8233C33.6143 72.9963 40.534 84.1915 51.7069 86.8285C62.8799 89.4656 74.0751 82.5459 76.7121 71.3729Z" fill="#E6E6E6"/>
<path d="M56.4835 84.3493C66.2838 84.3493 74.2285 76.4046 74.2285 66.6044C74.2285 56.8041 66.2838 48.8594 56.4835 48.8594C46.6832 48.8594 38.7385 56.8041 38.7385 66.6044C38.7385 76.4046 46.6832 84.3493 56.4835 84.3493Z" fill="#F5F5F5"/>
<path d="M56.4835 80.4943C64.1549 80.4943 70.3737 74.2755 70.3737 66.6041C70.3737 58.9327 64.1549 52.7139 56.4835 52.7139C48.8121 52.7139 42.5933 58.9327 42.5933 66.6041C42.5933 74.2755 48.8121 80.4943 56.4835 80.4943Z" fill="#E6E6E6"/>
<path d="M60.8429 77.119C66.6515 74.713 69.4099 68.0536 67.0039 62.245C64.5978 56.4363 57.9385 53.6779 52.1298 56.0839C46.3212 58.49 43.5628 65.1493 45.9688 70.958C48.3748 76.7667 55.0342 79.525 60.8429 77.119Z" fill="#F5F5F5"/>
<path d="M64.1711 68.413C65.1734 64.1663 62.5433 59.9111 58.2966 58.9088C54.0499 57.9065 49.7947 60.5366 48.7924 64.7833C47.7901 69.03 50.4202 73.2852 54.6669 74.2875C58.9136 75.2898 63.1688 72.6597 64.1711 68.413Z" fill="#E6E6E6"/>
<path d="M58.6575 71.8425C61.5521 70.6436 62.9266 67.3251 61.7276 64.4305C60.5287 61.5359 57.2102 60.1613 54.3156 61.3603C51.421 62.5593 50.0464 65.8778 51.2454 68.7724C52.4444 71.6669 55.7629 73.0415 58.6575 71.8425Z" fill="#F5F5F5"/>
<path d="M59.0551 66.6045C59.0551 67.1144 58.9038 67.6129 58.6204 68.0368C58.337 68.4607 57.9342 68.791 57.4629 68.9859C56.9917 69.1808 56.4733 69.2315 55.9732 69.1317C55.4732 69.0318 55.014 68.7858 54.6538 68.4248C54.2936 68.0639 54.0486 67.6042 53.9497 67.1039C53.8509 66.6036 53.9027 66.0853 54.0986 65.6145C54.2945 65.1436 54.6257 64.7415 55.0502 64.459C55.4747 64.1765 55.9735 64.0263 56.4835 64.0273C56.8216 64.0273 57.1565 64.094 57.4688 64.2236C57.7812 64.3532 58.065 64.5431 58.3038 64.7825C58.5427 65.0219 58.732 65.306 58.8609 65.6187C58.9898 65.9313 59.0558 66.2663 59.0551 66.6045Z" fill="#E6E6E6"/>
<path d="M29.806 49.46L30.3683 53.2164L26.459 54.5323L30.3683 56.5853L34.2668 55.2148L33.5843 51.5129L29.806 49.46Z" fill="#E6E6E6"/>
<path d="M56.4835 67.1501C56.3963 67.1491 56.3105 67.1286 56.2323 67.0901L28.2607 52.7521C28.1363 52.6838 28.0433 52.5696 28.0016 52.4339C27.9599 52.2981 27.9727 52.1514 28.0374 52.025C28.102 51.8986 28.2134 51.8023 28.3479 51.7566C28.4823 51.7109 28.6293 51.7194 28.7576 51.7802L56.7292 66.0964C56.8578 66.1618 56.9552 66.2755 57.0002 66.4126C57.0453 66.5497 57.0342 66.699 56.9694 66.828C56.9271 66.9221 56.859 67.0023 56.773 67.0594C56.687 67.1164 56.5866 67.1478 56.4835 67.1501Z" fill="#E0E0E0"/>
<path d="M94.9766 43.2519C94.9739 42.5006 95.1477 41.7592 95.4839 41.0874C95.82 40.4155 96.3092 39.832 96.9121 39.3837C97.5149 38.9354 98.2146 38.6349 98.9548 38.5063C99.695 38.3778 100.455 38.4248 101.174 38.6436C100.96 37.1949 101.062 35.7172 101.471 34.3112C101.88 32.9051 102.588 31.6039 103.545 30.496C104.503 29.3881 105.688 28.4997 107.02 27.8912C108.352 27.2828 109.799 26.9686 111.264 26.9701C111.892 26.9699 112.519 27.0284 113.137 27.1449C114.141 25.4935 115.656 24.2137 117.452 23.4985C119.248 22.7833 121.228 22.6715 123.093 23.18C124.958 23.6885 126.607 24.7896 127.791 26.3173C128.975 27.8451 129.631 29.7165 129.659 31.6494H129.811C131.989 31.6494 134.078 32.5145 135.618 34.0546C137.158 35.5946 138.023 37.6833 138.023 39.8612C138.023 42.0391 137.158 44.1278 135.618 45.6679C134.078 47.2079 131.989 48.0731 129.811 48.0731H99.6504C98.3965 48.0375 97.2062 47.5135 96.3331 46.6129C95.46 45.7123 94.9732 44.5062 94.9766 43.2519Z" fill="#F0F0F0"/>
<path d="M180.639 40.6094C180.639 39.994 180.883 39.4037 181.318 38.9685C181.753 38.5334 182.344 38.2889 182.959 38.2889C183.185 38.2909 183.409 38.324 183.625 38.3872C183.59 38.1521 183.572 37.9149 183.571 37.6774C183.57 36.955 183.729 36.2415 184.036 35.5876C184.343 34.9337 184.79 34.3555 185.346 33.8941C185.901 33.4327 186.552 33.0995 187.251 32.9182C187.95 32.7369 188.681 32.712 189.391 32.8453C189.877 32.0513 190.609 31.4368 191.474 31.0942C192.34 30.7517 193.294 30.6997 194.192 30.9461C195.09 31.1924 195.883 31.7238 196.453 32.4602C197.023 33.1966 197.338 34.0982 197.352 35.0293H197.423C198.472 35.0293 199.479 35.4463 200.222 36.1887C200.964 36.931 201.381 37.9379 201.381 38.9878C201.381 40.0376 200.964 41.0445 200.222 41.7868C199.479 42.5292 198.472 42.9463 197.423 42.9463H182.894C182.286 42.9305 181.709 42.6767 181.288 42.2395C180.866 41.8024 180.633 41.2169 180.639 40.6094Z" fill="#F0F0F0"/>
<path d="M31.717 43.4971C31.717 43.2923 31.7575 43.0895 31.836 42.9003C31.9145 42.7112 32.0297 42.5394 32.1747 42.3948C32.3198 42.2502 32.492 42.1357 32.6814 42.0579C32.8708 41.98 33.0738 41.9403 33.2786 41.941C33.4303 41.9406 33.5811 41.9626 33.7263 42.0065C33.7025 41.8474 33.6898 41.6869 33.6881 41.526C33.6952 40.6594 34.0427 39.8302 34.6555 39.2174C35.2683 38.6046 36.0975 38.2571 36.9641 38.25C37.1694 38.2508 37.3741 38.2709 37.5756 38.3101C37.8997 37.7732 38.3899 37.3567 38.9721 37.1236C39.5542 36.8905 40.1965 36.8535 40.8015 37.0184C41.4066 37.1832 41.9413 37.5408 42.3248 38.037C42.7082 38.5332 42.9195 39.1409 42.9264 39.7679H42.9755C43.6606 39.7989 44.3074 40.0929 44.7812 40.5887C45.255 41.0845 45.5194 41.7439 45.5194 42.4296C45.5194 43.1154 45.255 43.7748 44.7812 44.2706C44.3074 44.7664 43.6606 45.0604 42.9755 45.0914H33.2349C33.0305 45.0864 32.8292 45.0413 32.6423 44.9584C32.4554 44.8756 32.2866 44.7568 32.1456 44.6087C32.0047 44.4607 31.8943 44.2863 31.8207 44.0955C31.7472 43.9048 31.712 43.7014 31.717 43.4971Z" fill="#F0F0F0"/>
<path d="M116.5 203.447C174.967 203.447 222.364 200.68 222.364 197.267C222.364 193.853 174.967 191.086 116.5 191.086C58.0329 191.086 10.636 193.853 10.636 197.267C10.636 200.68 58.0329 203.447 116.5 203.447Z" fill="#F5F5F5"/>
<path d="M55.5554 93.1559L59.301 91.0156C59.301 91.0156 60.7424 88.7934 61.1738 88.6897C61.6051 88.5859 66.3553 88.6897 66.3553 88.6897C66.3553 88.6897 65.64 91.7691 65.5636 92.3752C65.4872 92.9812 60.9554 92.3752 60.9554 92.3752L57.2862 94.5592L55.5554 93.1559Z" fill="#EBB376"/>
<path d="M20.6716 192.768L16.7513 191.987C16.6813 191.987 16.6133 192.011 16.5587 192.054C16.504 192.098 16.466 192.159 16.451 192.228L15.3972 196.148C15.375 196.282 15.4036 196.419 15.4773 196.533C15.551 196.647 15.6645 196.73 15.7958 196.765H15.9105C17.2973 196.765 18.3074 196.656 20.0437 196.656C21.1357 196.656 24.3462 196.77 25.8258 196.77C27.3055 196.77 27.5021 195.307 26.9178 195.176C24.1878 194.581 22.1567 193.762 21.2886 192.992C21.1204 192.839 20.8987 192.758 20.6716 192.768Z" fill="#263238"/>
<path d="M68.6487 192.637H64.368C64.2978 192.635 64.2292 192.659 64.1744 192.703C64.1195 192.746 64.0818 192.808 64.0677 192.877L63.3688 196.044C63.3483 196.178 63.3783 196.314 63.453 196.427C63.5277 196.54 63.6417 196.622 63.7729 196.655H63.8875C65.2744 196.628 66.279 196.546 68.0208 196.546C69.1128 196.546 72.3232 196.655 73.8029 196.655C75.2826 196.655 75.4737 195.198 74.8676 195.061C72.1376 194.471 70.1065 193.647 69.2383 192.877C69.1613 192.799 69.0693 192.738 68.968 192.697C68.8667 192.656 68.7581 192.635 68.6487 192.637Z" fill="#263238"/>
<path d="M28.2282 120.515L46.3554 115.918C50.4667 124.894 65.5527 161.749 69.2109 192.413L63.0739 193.969C63.0739 193.969 52.2085 148.749 43.0957 135.547C43.0957 135.547 42.6098 155.618 41.6215 158.539C40.808 160.941 22.1512 193.084 22.1512 193.084L16.0906 192.402C16.0906 192.402 31.324 159.598 32.2194 155.508C32.8528 152.724 30.0791 132.271 30.0791 132.271C29.5932 130.447 28.8615 122.896 28.8615 122.896C28.8615 122.896 28.3155 120.892 28.2282 120.515Z" fill="#407BFF"/>
<path opacity="0.2" d="M43.1013 135.558C44.6395 137.885 45.9819 140.336 47.1144 142.885C45.8586 135.82 41.9656 128.979 41.9656 128.979L43.1013 135.558Z" fill="black"/>
<path opacity="0.3" d="M28.2282 120.515L46.3554 115.918C50.4667 124.894 65.5527 161.749 69.2109 192.413L63.0739 193.969C63.0739 193.969 52.2085 148.749 43.0957 135.547C43.0957 135.547 42.6098 155.618 41.6215 158.539C40.808 160.941 22.1512 193.084 22.1512 193.084L16.0906 192.402C16.0906 192.402 31.324 159.598 32.2194 155.508C32.8528 152.724 30.0791 132.271 30.0791 132.271C29.5932 130.447 28.8615 122.896 28.8615 122.896C28.8615 122.896 28.3155 120.892 28.2282 120.515Z" fill="black"/>
<path d="M59.7432 93.4671C59.7432 93.4671 51.4767 99.0472 49.2982 99.342C48.4301 99.4622 46.6392 99.1673 44.7882 98.796C41.9818 98.1954 39.0552 97.3546 39.0552 97.3546L38.6894 94.5864L38.3018 91.6271C38.957 91.4087 47.5073 94.9031 48.785 95.4491C50.0626 95.9951 58.3236 91.0811 58.3236 91.0811L59.7432 93.4671Z" fill="#263238"/>
<path d="M34.1795 119.238L34.7145 121.335L28.8614 122.896L28.3154 120.723L34.1795 119.238Z" fill="black"/>
<path d="M43.4125 116.896L43.9202 118.883L35.3644 121.165L34.8293 119.074L43.4125 116.896Z" fill="black"/>
<path d="M47.2891 117.988L44.5646 118.714L44.0623 116.732L46.5629 116.099L47.2891 117.988Z" fill="black"/>
<path d="M38.7577 120.262L42.1343 119.405L41.5169 116.971L38.1403 117.827L38.7577 120.262Z" fill="white"/>
<path d="M46.5574 116.094L28.3101 120.724C27.4201 118.316 26.5137 115.892 25.6292 113.527C24.9795 111.797 24.3407 110.099 23.7182 108.455C23.5617 108.033 23.4034 107.618 23.2432 107.21L22.6972 105.758C22.2932 104.695 21.9037 103.67 21.5288 102.684L20.5241 100.058L20.0491 98.8127L19.1482 96.4649L38.3073 91.6055C44.6246 102.629 46.5574 116.094 46.5574 116.094Z" fill="#263238"/>
<path d="M26.1041 95.9946C28.0752 96.9392 31.7115 95.2739 31.7115 95.2739C31.7115 95.2739 32.9182 93.9417 32.1975 93.352C30.7342 93.5431 30.827 93.0626 30.2974 92.3146C29.9945 91.8425 29.7868 91.3157 29.6859 90.764C29.6204 90.4592 29.5712 90.1512 29.5384 89.8412L23.7891 87.7773C25.094 89.8849 27.1197 93.8762 26.1041 95.9946Z" fill="#EBB376"/>
<path opacity="0.2" d="M25.5364 89.6611C26.5738 92.4184 29.1181 92.5003 30.2975 92.3147C29.9946 91.8426 29.7869 91.3158 29.686 90.764L25.5364 89.6611Z" fill="black"/>
<path d="M33.0276 79.2002C33.0276 79.2002 34.5291 83.732 32.3615 85.9433C30.1938 88.1546 28.7251 79.4896 28.7251 79.4896L33.0276 79.2002Z" fill="#263238"/>
<path d="M25.8204 90.8789C26.469 91.5558 27.3216 92.0013 28.2476 92.1472C29.1736 92.2932 30.1219 92.1315 30.9473 91.687C32.0294 91.1278 32.8574 90.1768 33.2623 89.028C33.3169 88.8751 33.3661 88.7113 33.4097 88.5475C34.1414 85.4954 33.6828 80.4558 30.3576 79.1017C29.6247 78.7996 28.8267 78.69 28.0395 78.7833C27.2523 78.8766 26.5021 79.1698 25.8602 79.635C25.2183 80.1001 24.7061 80.7217 24.3723 81.4407C24.0384 82.1597 23.8941 82.9522 23.953 83.7427C24.1496 87.1443 24.1059 89.1427 25.8204 90.8789Z" fill="#EBB376"/>
<path d="M29.1018 84.7094C29.1018 84.9824 29.2438 85.2062 29.4294 85.2062C29.615 85.2062 29.7515 84.9824 29.757 84.7094C29.7625 84.4364 29.6096 84.207 29.4294 84.207C29.2492 84.207 29.1018 84.4309 29.1018 84.7094Z" fill="#263238"/>
<path d="M32.2249 84.7088C32.2249 84.9872 32.3723 85.2111 32.5525 85.2111C32.7326 85.2111 32.8746 84.9818 32.88 84.7088C32.8855 84.4358 32.7272 84.2119 32.5525 84.2119C32.3777 84.2119 32.2249 84.4467 32.2249 84.7088Z" fill="#263238"/>
<path d="M31.2311 84.8457C31.5576 85.6912 32.0005 86.4869 32.547 87.2099C32.3574 87.3457 32.1403 87.4381 31.911 87.4806C31.6817 87.523 31.4458 87.5145 31.2202 87.4556L31.2311 84.8457Z" fill="#D58745"/>
<path d="M33.366 83.4316C33.3398 83.445 33.3108 83.452 33.2814 83.452C33.252 83.452 33.223 83.445 33.1968 83.4316C33.0353 83.3075 32.8469 83.223 32.6468 83.1851C32.4467 83.1471 32.2404 83.1568 32.0447 83.2132C32.0049 83.2284 31.9607 83.2272 31.9218 83.2098C31.8828 83.1924 31.8524 83.1602 31.8372 83.1204C31.822 83.0806 31.8233 83.0363 31.8407 82.9974C31.8581 82.9585 31.8902 82.9281 31.9301 82.9129C32.1749 82.8356 32.4348 82.8185 32.6877 82.8632C32.9406 82.9079 33.1789 83.013 33.3824 83.1695C33.4003 83.1811 33.4157 83.1961 33.4276 83.2138C33.4395 83.2314 33.4478 83.2513 33.4518 83.2722C33.4559 83.2931 33.4557 83.3146 33.4513 83.3354C33.4469 83.3562 33.4383 83.376 33.4261 83.3934C33.4078 83.4086 33.3876 83.4214 33.366 83.4316Z" fill="#263238"/>
<path d="M28.4848 83.4695C28.4535 83.4653 28.4237 83.4541 28.3974 83.4367C28.3674 83.4061 28.3506 83.3649 28.3506 83.3221C28.3506 83.2792 28.3674 83.238 28.3974 83.2074C28.5882 83.0327 28.8185 82.9067 29.0685 82.8401C29.3185 82.7736 29.581 82.7685 29.8334 82.8252C29.8732 82.8378 29.9067 82.8652 29.927 82.9018C29.9473 82.9383 29.9529 82.9812 29.9426 83.0218C29.9299 83.063 29.9019 83.0979 29.8644 83.1192C29.8268 83.1405 29.7825 83.1467 29.7406 83.1364C29.5414 83.0964 29.3356 83.1042 29.14 83.1593C28.9445 83.2143 28.7648 83.315 28.6158 83.4531C28.5963 83.4648 28.5746 83.4723 28.552 83.4751C28.5295 83.4779 28.5066 83.476 28.4848 83.4695Z" fill="#263238"/>
<path d="M26.4427 79.5273L26.7703 80.1552C25.6783 80.5757 25.9513 81.8642 26.2243 82.4375C26.7703 83.6715 26.1424 85.6535 25.2197 86.4779C25.2197 86.4779 25.1596 85.9319 24.7064 86.0848C24.2533 86.2377 24.5153 89.066 25.4763 90.3764C25.4763 90.3764 24.0622 89.2134 23.1558 86.2759C22.3204 83.5459 22.1239 81.2691 22.6426 80.1771L26.4427 79.5273Z" fill="#263238"/>
<path d="M22.4678 86.5384C22.6535 86.9196 22.9126 87.2605 23.2302 87.5416C23.5478 87.8227 23.9177 88.0384 24.3187 88.1764C25.4107 88.5367 25.9567 87.5921 25.7383 86.5384C25.509 85.6156 24.6846 84.2779 23.5543 84.3817C23.316 84.4082 23.0881 84.4939 22.8912 84.6308C22.6943 84.7677 22.5347 84.9515 22.4268 85.1657C22.319 85.3798 22.2662 85.6175 22.2733 85.8572C22.2805 86.0969 22.3473 86.331 22.4678 86.5384Z" fill="#EBB376"/>
<path d="M26.4099 92.244C28.0152 93.3688 31.1438 93.7346 32.678 91.698C34.2123 89.6614 33.7209 86.3909 33.7209 86.3909C33.5447 87.1213 33.209 87.8038 32.7381 88.3892C31.8699 87.3409 30.3957 87.9361 30.3957 87.9361C30.0851 87.5317 29.6393 87.2527 29.1399 87.1498C28.4247 87.0788 26.4099 87.199 26.4099 87.199C25.7657 86.7895 25.7384 84.9658 25.7384 84.9658L25.3452 85.2934C25.3452 85.2934 24.7992 91.1138 26.4099 92.244Z" fill="#263238"/>
<path d="M30.7015 80.6849C30.7015 80.6849 34.5235 78.8285 34.0703 76.9721C33.6171 75.1157 32.5033 77.2342 32.5033 77.2342C32.5033 77.2342 33.0165 75.8255 32.0119 75.5962C31.0073 75.3669 31.3239 76.2678 30.7779 76.8083C30.2319 77.3489 24.9357 76.5626 23.2268 77.6219C21.5178 78.6811 22.8227 82.3448 22.8227 82.3448C23.832 81.3315 25.1151 80.6347 26.5146 80.3399C27.9141 80.045 29.3692 80.1649 30.7015 80.6849Z" fill="#263238"/>
<path opacity="0.2" d="M26.4099 92.244C28.0152 93.3688 31.1438 93.7346 32.678 91.698C34.2123 89.6614 33.7209 86.3909 33.7209 86.3909C33.5447 87.1213 33.209 87.8038 32.7381 88.3892C31.8699 87.3409 30.3957 87.9361 30.3957 87.9361C30.0851 87.5317 29.6393 87.2527 29.1399 87.1498C28.4247 87.0788 26.4099 87.199 26.4099 87.199C25.7657 86.7895 25.7384 84.9658 25.7384 84.9658L25.3452 85.2934C25.3452 85.2934 24.7992 91.1138 26.4099 92.244Z" fill="white"/>
<path d="M30.5595 88.9736C30.2657 89.3668 30.0011 89.7811 29.7678 90.213L29.5221 90.1202C28.4301 89.7216 28.037 89.1756 27.9497 88.6842C27.9143 88.4461 27.9349 88.2031 28.0097 87.9744C28.0495 87.842 28.1064 87.7153 28.179 87.5977C28.7533 88.146 29.4384 88.5649 30.1883 88.8262C30.4121 88.9244 30.5595 88.9736 30.5595 88.9736Z" fill="#263238"/>
<path d="M30.1883 88.831L29.9426 89.1914C28.9052 88.8147 28.2227 88.4106 28.0098 87.9793C28.0496 87.8469 28.1065 87.7202 28.179 87.6025C28.7533 88.1509 29.4385 88.5698 30.1883 88.831Z" fill="white"/>
<path d="M29.5222 90.1196C28.4302 89.721 28.0371 89.175 27.9497 88.6836C28.3667 88.8458 28.7527 89.0785 29.0908 89.3716C29.3097 89.5694 29.4606 89.8311 29.5222 90.1196Z" fill="#DE5753"/>
<path d="M32.4324 95.2793L32.1103 98.1076L38.0071 110.671L37.4229 112.336L35.4955 111.446L31.2913 98.6317L28.2009 96.5406L30.4504 95.3066L32.4324 95.2793Z" fill="#407BFF"/>
<path d="M26.2353 93.3464L30.1392 94.9571L30.2975 92.3145L33.1749 93.0243L33.4206 97.0483L30.6524 95.918L29.4949 98.4952L24.5754 95.2083L26.2353 93.3464Z" fill="#263238"/>
<path opacity="0.2" d="M26.2353 93.3464L30.1392 94.9571L30.2975 92.3145L33.1749 93.0243L33.4206 97.0483L30.6524 95.918L29.4949 98.4952L24.5754 95.2083L26.2353 93.3464Z" fill="white"/>
<path opacity="0.2" d="M22.6918 105.758C22.2878 104.695 21.8983 103.67 21.5234 102.684L20.5187 100.057L20.0437 98.8124C20.5897 98.5449 21.982 98.7032 22.3697 99.3584C23.7893 101.837 22.6918 105.758 22.6918 105.758Z" fill="black"/>
<path opacity="0.2" d="M29.5332 108.531C29.3 109.604 28.8278 110.61 28.1519 111.475C27.476 112.34 26.6138 113.042 25.6293 113.527C24.9795 111.797 24.3407 110.099 23.7183 108.455C23.5618 108.033 23.4034 107.618 23.2433 107.21L22.6973 105.758L29.0199 106.56L29.5332 108.531Z" fill="black"/>
<path opacity="0.2" d="M44.7883 98.7741C41.9818 98.1735 39.0553 97.3327 39.0553 97.3327L38.6895 94.5645C38.6895 94.5645 43.8492 95.1159 44.7883 98.7741Z" fill="black"/>
<path d="M19.1427 163.284C18.9715 163.29 18.8029 163.242 18.6605 163.146C18.518 163.051 18.409 162.914 18.3488 162.754C18.2885 162.593 18.28 162.418 18.3245 162.253C18.369 162.087 18.4642 161.94 18.5967 161.832C27.7094 154.351 27.5347 142.629 27.3655 131.288C27.2344 122.738 27.1143 114.657 31.1383 109.164C36.784 101.444 59.4921 89.1972 63.254 88.8478C65.9458 88.5802 148.048 65.7629 191.089 53.7345C191.298 53.6759 191.522 53.7027 191.712 53.8092C191.901 53.9157 192.04 54.0931 192.099 54.3023C192.158 54.5116 192.131 54.7356 192.024 54.925C191.918 55.1144 191.741 55.2538 191.531 55.3124C186.437 56.7375 66.7812 90.1691 63.4069 90.4803C60.1691 90.7806 37.6903 102.978 32.4596 110.136C28.7632 115.187 28.8779 123 29.0035 131.266C29.1673 142.449 29.3584 155.127 19.6341 163.104C19.4948 163.217 19.322 163.28 19.1427 163.284Z" fill="#263238"/>
<path opacity="0.4" d="M191.559 55.3068L180.333 58.4518C149.456 67.0676 66.2188 90.229 63.4342 90.4856C60.1964 90.7859 37.7176 102.984 32.4869 110.142C28.7905 115.192 28.9051 123.005 29.0307 131.272C29.1945 142.454 29.3856 155.132 19.6614 163.109C19.5084 163.236 19.314 163.302 19.1154 163.295C18.9442 163.3 18.7755 163.252 18.6331 163.157C18.4907 163.062 18.3817 162.925 18.3214 162.764C18.2612 162.604 18.2527 162.429 18.2971 162.263C18.3416 162.098 18.4368 161.951 18.5694 161.842C27.6821 154.362 27.5074 142.64 27.3381 131.299C27.2071 122.749 27.087 114.668 31.111 109.175C36.7566 101.455 59.4648 89.2079 63.2267 88.8585C65.7601 88.6073 138.498 68.4163 182.954 56.0111L191.062 53.7453C191.271 53.6866 191.495 53.7135 191.684 53.82C191.874 53.9265 192.013 54.1038 192.072 54.3131C192.13 54.5223 192.104 54.7463 191.997 54.9357C191.891 55.1252 191.713 55.2645 191.504 55.3232L191.559 55.3068Z" fill="white"/>
<path opacity="0.2" d="M191.559 55.3074L180.333 58.4523C181.12 57.5292 182.018 56.7076 183.008 56.0063L191.116 53.7404C191.325 53.6817 191.549 53.7086 191.739 53.8151C191.928 53.9216 192.068 54.099 192.126 54.3082C192.185 54.5175 192.158 54.7414 192.052 54.9309C191.945 55.1203 191.768 55.2597 191.559 55.3183V55.3074Z" fill="black"/>
<path d="M24.7229 106.936L29.0145 106.56C29.0145 106.56 31.2585 105.14 31.6899 105.233C32.1212 105.326 36.3964 107.417 36.3964 107.417C36.3964 107.417 34.4581 109.912 34.1359 110.431C33.8138 110.95 29.9536 108.503 29.9536 108.503L25.7002 108.957L24.7229 106.936Z" fill="#EBB376"/>
<path d="M19.1427 96.4648C17.1935 97.8571 12.1157 109.208 12.6562 110.961C13.1968 112.714 28.998 109.258 28.998 109.258L28.2991 106.304H19.7979L21.8181 103.115C21.8181 103.115 23.063 101.903 22.2986 99.0856C21.7471 97.0545 19.1427 96.4648 19.1427 96.4648Z" fill="#263238"/>
<path d="M183.773 97.6064L180.535 96.0721C180.535 96.0721 178.897 92.9381 178.416 92.4358C177.936 91.9334 175.615 93.8826 175.615 94.2212C175.615 94.5597 177.297 97.7265 177.734 97.9176C178.384 98.0131 179.044 98.0131 179.694 97.9176L182.774 99.4082L183.773 97.6064Z" fill="#9F5B53"/>
<path d="M191.329 78.1849L191.979 75.8644C191.979 75.8644 193.005 72.8395 192.896 72.1406C192.696 71.3134 192.436 70.5015 192.121 69.7109C192.121 69.7109 189.282 73.1671 189.282 73.5985C189.282 74.0298 190.406 75.5968 190.406 75.5968L189.86 78.1849H191.329Z" fill="#9F5B53"/>
<path d="M193.825 95.4715C193.825 95.4715 191.379 92.4303 190.658 89.602C189.937 86.7738 192.116 77.59 192.116 77.59L189.817 76.9785C189.817 76.9785 187.087 86.3752 186.994 89.8041C186.901 93.2329 192.001 103.296 192.001 103.296L193.825 95.4715Z" fill="#407BFF"/>
<path opacity="0.2" d="M192.345 101.783L191.995 103.273C191.995 103.273 190.237 99.806 188.801 96.2461C190.296 97.3195 191.422 98.8277 192.028 100.565C192.167 100.961 192.273 101.369 192.345 101.783Z" fill="black"/>
<path d="M206.776 102.133C206.745 102.767 206.668 103.398 206.546 104.022C206.295 105.387 205.869 106.998 205.383 108.772C205.121 109.706 204.837 110.705 204.586 111.759C203.369 116.492 202.708 118.376 201.807 124.42L184.526 120.32C185.46 115.146 186.884 110.073 188.779 105.168C189.282 103.864 189.871 102.559 190.467 101.27C191.421 99.2496 192.544 97.3135 193.825 95.4824C193.825 95.4824 196.62 98.0377 205.4 99.572C206.464 99.7358 206.83 100.664 206.776 102.133Z" fill="#407BFF"/>
<path opacity="0.2" d="M204.603 100.161C204.603 100.707 206.672 103.306 206.546 103.983C206.312 104.142 206.033 104.316 205.717 104.529C199.869 107.931 192.198 106.206 188.791 105.152C189.293 103.847 190.429 101.45 191.018 100.161L195.119 101.073C195.119 101.073 201.824 99.5444 204.603 100.161Z" fill="black"/>
<path d="M197.576 96.5143C198.203 96.274 203.358 97.5571 202.975 97.6663C202.593 97.7755 200.671 103.672 197.98 103.23C195.288 102.788 195.337 97.366 197.576 96.5143Z" fill="#407BFF"/>
<path d="M174.239 193.129L170.996 193.834L169.102 186.375L172.35 185.671L174.239 193.129Z" fill="#9F5B53"/>
<path d="M170.188 192.479H174.223C174.289 192.479 174.353 192.502 174.404 192.543C174.454 192.585 174.489 192.643 174.502 192.708L175.157 195.662C175.171 195.725 175.173 195.79 175.162 195.854C175.151 195.918 175.127 195.979 175.092 196.033C175.056 196.088 175.011 196.135 174.957 196.171C174.904 196.208 174.844 196.233 174.78 196.246H174.671C173.366 196.246 172.416 196.142 170.778 196.142C169.768 196.142 166.721 196.246 165.318 196.246C163.915 196.246 163.746 194.87 164.313 194.745C166.874 194.199 168.802 193.412 169.621 192.681C169.697 192.611 169.787 192.557 169.884 192.523C169.982 192.488 170.085 192.473 170.188 192.479Z" fill="#263238"/>
<path d="M169.091 193.063C168.865 193.08 168.64 193.02 168.452 192.894C168.391 192.844 168.343 192.779 168.315 192.705C168.286 192.631 168.277 192.552 168.288 192.473C168.286 192.427 168.297 192.381 168.32 192.342C168.343 192.302 168.378 192.27 168.419 192.249C168.79 192.058 169.861 192.719 169.981 192.795C169.995 192.802 170.006 192.813 170.013 192.827C170.02 192.841 170.022 192.857 170.019 192.872C170.017 192.888 170.01 192.902 169.999 192.914C169.989 192.926 169.974 192.934 169.959 192.937C169.675 193.012 169.384 193.054 169.091 193.063ZM168.594 192.375C168.562 192.364 168.527 192.364 168.496 192.375C168.496 192.375 168.446 192.402 168.441 192.468C168.435 192.52 168.442 192.572 168.461 192.62C168.48 192.669 168.511 192.712 168.55 192.746C168.921 192.916 169.343 192.937 169.73 192.806C169.382 192.59 168.997 192.444 168.594 192.375Z" fill="#407BFF"/>
<path d="M169.937 192.943H169.899C169.56 192.757 168.894 192.025 168.96 191.676C168.972 191.617 169.004 191.565 169.051 191.527C169.098 191.489 169.156 191.468 169.216 191.468C169.276 191.461 169.337 191.466 169.394 191.484C169.452 191.502 169.505 191.532 169.549 191.572C169.931 191.883 170.013 192.839 170.019 192.883C170.02 192.897 170.017 192.911 170.01 192.924C170.003 192.936 169.993 192.946 169.981 192.954C169.973 192.956 169.965 192.956 169.957 192.954C169.95 192.952 169.943 192.948 169.937 192.943ZM169.271 191.594H169.233C169.129 191.594 169.123 191.654 169.118 191.676C169.074 191.894 169.5 192.446 169.839 192.702C169.82 192.33 169.689 191.972 169.462 191.676C169.437 191.65 169.408 191.629 169.375 191.615C169.342 191.601 169.307 191.594 169.271 191.594Z" fill="#407BFF"/>
<path d="M201.949 124.873C201.949 124.873 199.148 138.229 192.596 141.799C191.844 142.222 191.02 142.502 190.166 142.624C190.166 142.624 183.522 145.354 177.778 147.936C174.283 149.514 171.122 151.054 169.992 151.917C167 154.194 174.327 189.738 174.327 189.738L169.347 189.793C169.347 189.793 158.87 158.321 160.611 150.06C162.353 141.799 181.157 129.154 181.157 129.154L184.051 121.193L201.949 124.873Z" fill="#263238"/>
<path opacity="0.2" d="M192.596 141.816C191.844 142.239 191.02 142.519 190.166 142.641C190.166 142.641 183.522 145.371 177.778 147.953C181.474 141.155 188.064 136.738 188.064 136.738L192.596 141.816Z" fill="black"/>
<path d="M215.987 193.129L212.744 193.834L210.849 186.375L214.098 185.671L215.987 193.129Z" fill="#9F5B53"/>
<path d="M211.935 192.479H215.97C216.036 192.479 216.1 192.502 216.151 192.543C216.201 192.585 216.236 192.643 216.249 192.708L216.904 195.662C216.918 195.725 216.92 195.79 216.909 195.854C216.898 195.918 216.874 195.979 216.839 196.033C216.804 196.088 216.758 196.135 216.704 196.171C216.651 196.208 216.591 196.233 216.527 196.246H216.418C215.113 196.246 214.163 196.142 212.525 196.142C211.515 196.142 208.468 196.246 207.065 196.246C205.662 196.246 205.493 194.87 206.06 194.745C208.621 194.199 210.549 193.412 211.368 192.681C211.444 192.611 211.534 192.557 211.631 192.523C211.729 192.488 211.832 192.473 211.935 192.479Z" fill="#263238"/>
<path d="M210.838 193.063C210.612 193.08 210.387 193.02 210.199 192.894C210.138 192.844 210.091 192.779 210.062 192.705C210.033 192.631 210.024 192.552 210.035 192.473C210.033 192.427 210.044 192.381 210.067 192.342C210.09 192.302 210.125 192.27 210.166 192.249C210.537 192.058 211.608 192.719 211.728 192.795C211.742 192.802 211.753 192.813 211.76 192.827C211.767 192.841 211.769 192.857 211.766 192.872C211.764 192.888 211.757 192.902 211.746 192.914C211.736 192.926 211.722 192.934 211.706 192.937C211.422 193.012 211.131 193.054 210.838 193.063ZM210.341 192.375C210.309 192.364 210.275 192.364 210.243 192.375C210.243 192.375 210.194 192.402 210.188 192.468C210.182 192.52 210.189 192.572 210.208 192.62C210.227 192.669 210.258 192.712 210.297 192.746C210.668 192.916 211.09 192.937 211.477 192.806C211.13 192.59 210.744 192.444 210.341 192.375Z" fill="#407BFF"/>
<path d="M211.684 192.943H211.646C211.308 192.757 210.641 192.025 210.707 191.676C210.719 191.617 210.752 191.565 210.798 191.527C210.845 191.489 210.903 191.468 210.964 191.468C211.023 191.461 211.084 191.466 211.141 191.484C211.199 191.502 211.252 191.532 211.297 191.572C211.679 191.883 211.761 192.839 211.766 192.883C211.767 192.897 211.764 192.911 211.757 192.924C211.75 192.936 211.74 192.946 211.728 192.954C211.72 192.956 211.712 192.956 211.705 192.954C211.697 192.952 211.69 192.948 211.684 192.943ZM211.018 191.594H210.958C210.854 191.594 210.849 191.654 210.843 191.676C210.8 191.894 211.226 192.446 211.564 192.702C211.543 192.324 211.406 191.962 211.171 191.665C211.129 191.625 211.075 191.6 211.018 191.594Z" fill="#407BFF"/>
<path d="M203.068 99.342C202.255 99.888 198.504 99.6805 198.504 99.6805L196.762 101.586L196.593 98.4356C196.593 98.4356 195.419 97.9497 195.741 97.6111C196.149 97.6416 196.56 97.5901 196.948 97.4598C197.336 97.3294 197.694 97.1229 198.001 96.8522C198.76 96.1096 198.908 94.9139 198.897 93.7291C198.897 93.7291 198.897 93.6963 198.897 93.6854L202.102 92.0474L204.319 90.9062C203.276 93.1558 201.785 97.3764 203.068 99.342Z" fill="#9F5B53"/>
<path opacity="0.2" d="M203.161 92.796C202.102 95.4769 199.339 96.6727 197.979 96.8474C198.738 96.1048 198.886 94.9091 198.875 93.7243C198.878 93.708 198.878 93.6914 198.875 93.6751L202.08 92.0371C202.085 92.4739 203.314 92.3865 203.161 92.796Z" fill="black"/>
<path d="M205.198 92.6867C205.198 92.6867 207.278 93.7787 207.971 92.4737C208.665 91.1688 207.677 91.0923 208.698 90.6228C209.719 90.1532 211.171 89.8256 210.838 88.8374C210.505 87.8491 209.473 87.7454 210.62 86.6534C211.766 85.5614 212.017 84.0216 210.303 83.7213C208.588 83.421 209.244 82.0833 209.156 81.5373C209.069 80.9913 208.108 80.6091 207.065 80.8275C206.022 81.0459 205.585 79.5008 204.941 79.0203C204.297 78.5398 203.407 79.1295 203.172 79.7792C202.937 80.429 202.32 79.5663 201.403 79.4571C200.486 79.3479 200.699 80.3143 200.415 81.2152C200.131 82.1161 199.569 81.5319 198.913 82.2744C198.258 83.017 198.198 88.0839 205.198 92.6867Z" fill="#263238"/>
<path d="M206.104 89.5749C204.537 92.0319 203.647 93.6535 201.889 94.4507C201.652 94.5598 201.408 94.651 201.157 94.7237C197.739 95.7283 194.922 92.4359 195.823 89.1763C195.994 88.5879 196.213 88.0146 196.478 87.4619C197.701 84.9011 200.054 82.2803 202.866 82.6243C203.453 82.6914 204.021 82.8737 204.538 83.1607C205.055 83.4476 205.51 83.8337 205.877 84.2968C206.244 84.7598 206.516 85.2907 206.678 85.8592C206.84 86.4276 206.888 87.0223 206.819 87.6093C206.737 88.3111 206.492 88.9841 206.104 89.5749Z" fill="#9F5B53"/>
<path d="M201.294 87.9369C201.179 88.1826 200.933 88.2918 200.781 88.2099C200.628 88.128 200.611 87.8604 200.737 87.6311C200.862 87.4018 201.103 87.2762 201.25 87.3581C201.398 87.44 201.425 87.713 201.294 87.9369Z" fill="#263238"/>
<path d="M198.646 86.4784C198.612 86.581 198.539 86.6664 198.444 86.7164C198.348 86.7664 198.236 86.777 198.133 86.7459C197.985 86.6586 197.963 86.4019 198.094 86.1672C198.225 85.9324 198.455 85.8123 198.608 85.8996C198.76 85.987 198.771 86.2545 198.646 86.4784Z" fill="#263238"/>
<path d="M199.426 87.0625C198.748 87.6203 197.997 88.0832 197.193 88.4384C197.289 88.6428 197.429 88.8236 197.603 88.968C197.776 89.1123 197.98 89.2167 198.198 89.2738L199.426 87.0625Z" fill="#892B29"/>
<path d="M202.877 87.3253C202.849 87.3296 202.82 87.3264 202.793 87.3158C202.766 87.3053 202.742 87.2878 202.724 87.2652C202.614 87.102 202.466 86.9674 202.293 86.8725C202.12 86.7776 201.928 86.7251 201.731 86.7192C201.708 86.7235 201.684 86.7227 201.662 86.7169C201.639 86.7111 201.618 86.7004 201.6 86.6855C201.582 86.6706 201.568 86.652 201.558 86.6309C201.548 86.6099 201.543 86.5869 201.543 86.5636C201.543 86.5403 201.548 86.5174 201.558 86.4963C201.568 86.4752 201.582 86.4566 201.6 86.4417C201.618 86.4269 201.639 86.4162 201.662 86.4103C201.684 86.4045 201.708 86.4037 201.731 86.408C201.979 86.4097 202.224 86.4717 202.444 86.5886C202.663 86.7056 202.852 86.874 202.992 87.0796C203.005 87.0956 203.014 87.114 203.02 87.1338C203.026 87.1535 203.027 87.1742 203.025 87.1946C203.022 87.215 203.015 87.2346 203.005 87.2524C202.995 87.2702 202.981 87.2857 202.965 87.298C202.938 87.314 202.908 87.3234 202.877 87.3253Z" fill="#263238"/>
<path d="M198.837 90.7373C199.204 90.8564 199.594 90.8854 199.974 90.8217C200.354 90.758 200.713 90.6036 201.021 90.3715C201.035 90.3556 201.042 90.3352 201.042 90.3141C201.042 90.2931 201.035 90.2727 201.021 90.2568C201.006 90.2418 200.985 90.2334 200.964 90.2334C200.942 90.2334 200.922 90.2418 200.906 90.2568C200.615 90.4664 200.278 90.6051 199.924 90.6619C199.57 90.7188 199.207 90.6923 198.864 90.5844C198.855 90.5801 198.844 90.578 198.834 90.5782C198.823 90.5784 198.813 90.581 198.803 90.5857C198.794 90.5904 198.786 90.5971 198.779 90.6054C198.773 90.6137 198.768 90.6233 198.766 90.6335C198.762 90.6431 198.76 90.6536 198.76 90.6641C198.76 90.6746 198.763 90.6849 198.767 90.6943C198.772 90.7037 198.779 90.712 198.787 90.7185C198.795 90.7249 198.805 90.7295 198.815 90.7318L198.837 90.7373Z" fill="#263238"/>
<path d="M198.4 84.2123C198.392 84.1819 198.392 84.1499 198.4 84.1195C198.418 84.0822 198.45 84.0533 198.488 84.0391C198.527 84.0248 198.57 84.0262 198.608 84.0431C198.837 84.1456 199.038 84.3019 199.194 84.4986C199.349 84.6954 199.456 84.9268 199.503 85.1733C199.508 85.2145 199.496 85.2558 199.47 85.2885C199.445 85.3212 199.408 85.3425 199.366 85.348C199.325 85.3526 199.284 85.3409 199.251 85.3154C199.219 85.2899 199.197 85.2526 199.192 85.2115C199.149 85.0188 199.061 84.8388 198.936 84.6862C198.811 84.5335 198.652 84.4123 198.471 84.3324C198.452 84.3184 198.435 84.3004 198.423 84.2798C198.411 84.2591 198.403 84.2361 198.4 84.2123Z" fill="#263238"/>
<path d="M200.649 82.853C201.447 82.9513 201.84 83.945 201.84 83.945C202.804 84.2973 203.735 84.732 204.624 85.2445C204.895 85.4656 205.1 85.7581 205.213 86.089C205.327 86.4199 205.346 86.7761 205.269 87.1172C205.241 87.3793 204.597 87.6196 204.597 87.6196C204.597 87.6196 203.418 90.4042 203.096 91.174L203.259 93.7457C205.427 92.3752 207.162 90.42 208.266 88.1055C210.128 84.2289 202.358 80.8164 202.358 80.8164L200.649 82.853Z" fill="#263238"/>
<path d="M205.635 93.4619C204.909 93.8595 204.055 93.9537 203.259 93.724C202.206 93.4073 202.266 92.3262 203.047 91.6328C203.745 91.0322 205.149 90.4371 205.962 91.1359C206.14 91.288 206.277 91.4826 206.36 91.7016C206.443 91.9206 206.469 92.1569 206.437 92.3888C206.404 92.6207 206.313 92.8406 206.173 93.0282C206.033 93.2157 205.848 93.3649 205.635 93.4619Z" fill="#9F5B53"/>
<path d="M202.976 97.6657L198.635 98.9161L196.762 101.455L197.27 98.3482C197.27 98.3482 196.806 97.633 197.576 96.5137L194.933 97.0597L193.339 99.7241L196.44 98.998L196.653 102.094L198.46 99.9644L199.94 102.301L204.341 99.5112L202.976 97.6657Z" fill="#407BFF"/>
<path opacity="0.2" d="M202.976 97.6657L198.635 98.9161L196.762 101.455L197.27 98.3482C197.27 98.3482 196.806 97.633 197.576 96.5137L194.933 97.0597L193.339 99.7241L196.44 98.998L196.653 102.094L198.46 99.9644L199.94 102.301L204.341 99.5112L202.976 97.6657Z" fill="black"/>
<path d="M184.755 118.513L184.078 121.21L201.943 124.874L202.211 121.876L184.755 118.513Z" fill="black"/>
<path d="M192.733 119.926C192.591 119.724 188.616 118.867 188.239 119.151C188.239 119.151 187.469 121.81 187.6 122.088C187.731 122.367 191.597 122.907 191.968 122.984C192.339 123.06 192.875 120.15 192.733 119.926ZM191.641 122.656C191.346 122.596 188.168 122.154 188.059 121.924C187.95 121.695 188.605 119.511 188.605 119.511C188.916 119.276 192.181 119.981 192.296 120.145C192.41 120.308 191.935 122.689 191.641 122.629V122.656Z" fill="white"/>
<path d="M191.793 120.833L191.002 120.669C190.929 120.656 190.855 120.669 190.792 120.708C190.73 120.746 190.684 120.806 190.663 120.877C190.652 120.916 190.649 120.958 190.654 120.998C190.66 121.039 190.674 121.078 190.696 121.113C190.717 121.148 190.746 121.178 190.78 121.201C190.814 121.225 190.852 121.241 190.892 121.248L191.684 121.401C191.761 121.416 191.841 121.4 191.906 121.357C191.971 121.313 192.016 121.246 192.031 121.169C192.046 121.092 192.03 121.012 191.987 120.947C191.943 120.882 191.876 120.837 191.799 120.822L191.793 120.833Z" fill="white"/>
<path d="M201.944 124.873C201.944 124.873 202.287 145.075 201.72 150.972C201.152 156.869 215.872 189.143 215.872 189.143H211.105C211.105 189.143 196.664 165.512 193.355 158.239C190.046 150.966 187.6 133.615 187.6 133.615L201.944 124.873Z" fill="#263238"/>
<path d="M206.836 100.712C206.099 99.0416 194.78 101.515 193.759 101.226C192.738 100.936 182.113 96.4863 182.113 96.4863L181.19 98.856C181.19 98.856 190.718 104.316 192.804 105.179C194.889 106.041 203.227 105.626 205.362 104.704C205.727 104.546 206.057 104.316 206.33 104.027C206.604 103.739 206.816 103.397 206.954 103.024C207.092 102.651 207.153 102.253 207.132 101.856C207.112 101.459 207.011 101.07 206.836 100.712Z" fill="#407BFF"/>
<path d="M204.832 57.3214L201.403 35.4814L183.341 48.2524L189.347 50.7967C183.549 64.0864 164.739 103.022 132.372 131.73C91.0455 168.394 33.2023 186.434 32.6235 186.609L35.8231 197.054C38.2801 196.3 96.4728 178.173 139.64 139.882C174.038 109.372 193.377 69.1314 199.448 55.0446L204.832 57.3214Z" fill="#407BFF"/>
<path opacity="0.4" d="M201.556 53.4994L201.403 35.4814L183.341 48.2524L189.347 50.7967C183.549 64.0864 164.739 103.022 132.372 131.73C91.0455 168.394 33.2023 186.434 32.6235 186.609L33.6391 193.232C36.0961 192.478 94.2888 175.989 137.456 137.698C171.854 107.188 190.101 66.4014 196.172 52.3146L201.556 53.4994Z" fill="white"/>
<path d="M198.4 58.2438C198.315 58.2445 198.23 58.2316 198.149 58.2056L187.66 54.815C187.552 54.787 187.451 54.7372 187.363 54.6687C187.275 54.6002 187.202 54.5144 187.148 54.4166C187.094 54.3188 187.061 54.211 187.05 54.0999C187.04 53.9888 187.052 53.8767 187.086 53.7705C187.121 53.6643 187.176 53.5662 187.25 53.4823C187.323 53.3984 187.413 53.3304 187.514 53.2824C187.615 53.2345 187.724 53.2077 187.836 53.2037C187.947 53.1996 188.059 53.2184 188.163 53.2589L198.651 56.6441C198.838 56.7032 198.997 56.8273 199.1 56.9938C199.204 57.1604 199.243 57.3584 199.213 57.5519C199.183 57.7454 199.084 57.9216 198.935 58.0485C198.786 58.1755 198.596 58.2448 198.4 58.2438Z" fill="#263238"/>
<path opacity="0.4" d="M198.4 58.2438C198.315 58.2445 198.23 58.2316 198.149 58.2056L187.66 54.815C187.552 54.787 187.451 54.7372 187.363 54.6687C187.275 54.6002 187.202 54.5144 187.148 54.4166C187.094 54.3188 187.061 54.211 187.05 54.0999C187.04 53.9888 187.052 53.8767 187.086 53.7705C187.121 53.6643 187.176 53.5662 187.25 53.4823C187.323 53.3984 187.413 53.3304 187.514 53.2824C187.615 53.2345 187.724 53.2077 187.836 53.2037C187.947 53.1996 188.059 53.2184 188.163 53.2589L198.651 56.6441C198.838 56.7032 198.997 56.8273 199.1 56.9938C199.204 57.1604 199.243 57.3584 199.213 57.5519C199.183 57.7454 199.084 57.9216 198.935 58.0485C198.786 58.1755 198.596 58.2448 198.4 58.2438Z" fill="white"/>
<path d="M72.7819 160.455C72.5647 160.455 72.3564 160.369 72.2028 160.215C72.0492 160.062 71.9629 159.854 71.9629 159.636C71.9629 133.57 79.5359 130.152 80.9555 129.732L105.034 112.888L105.089 112.855L197.592 58.0039C197.779 57.8976 198 57.8688 198.207 57.9238C198.415 57.9787 198.592 58.113 198.702 58.2977C198.812 58.4825 198.844 58.7028 198.793 58.9113C198.741 59.1199 198.61 59.2999 198.427 59.4126L105.968 114.247L81.7745 131.173C81.6715 131.245 81.5541 131.293 81.4305 131.315C81.3705 131.315 73.6009 133.226 73.6009 159.653C73.5966 159.867 73.5084 160.071 73.3553 160.221C73.2022 160.371 72.9963 160.455 72.7819 160.455Z" fill="#263238"/>
<path opacity="0.4" d="M72.7819 160.455C72.5647 160.455 72.3564 160.369 72.2028 160.215C72.0492 160.062 71.9629 159.854 71.9629 159.636C71.9629 133.57 79.5359 130.152 80.9555 129.732L105.034 112.888L105.089 112.855L197.592 58.0039C197.779 57.8976 198 57.8688 198.207 57.9238C198.415 57.9787 198.592 58.113 198.702 58.2977C198.812 58.4825 198.844 58.7028 198.793 58.9113C198.741 59.1199 198.61 59.2999 198.427 59.4126L105.968 114.247L81.7745 131.173C81.6715 131.245 81.5541 131.293 81.4305 131.315C81.3705 131.315 73.6009 133.226 73.6009 159.653C73.5966 159.867 73.5084 160.071 73.3553 160.221C73.2022 160.371 72.9963 160.455 72.7819 160.455Z" fill="white"/>
<path d="M79.0719 133.407C79.0719 133.407 74.8622 136.137 71.6627 136.961C70.873 137.228 70.0256 137.275 69.2111 137.098C66.8306 136.344 68.2447 131.736 69.6643 128.826C69.8936 128.351 70.1229 127.925 70.3359 127.564L74.4964 130.136C74.4964 130.136 71.9739 133.734 72.2633 133.958C72.5526 134.182 76.4402 132.014 76.6313 131.943C76.8224 131.872 79.0719 133.407 79.0719 133.407Z" fill="#407BFF"/>
<path opacity="0.2" d="M79.0716 133.407C79.0716 133.407 74.862 136.137 71.6624 136.961C70.7742 134.309 70.1058 131.588 69.6641 128.826C69.8934 128.351 70.1227 127.925 70.3356 127.564L74.4962 130.136C74.4962 130.136 71.9736 133.734 72.263 133.958C72.5524 134.182 76.4399 132.014 76.631 131.943C76.8221 131.872 79.0716 133.407 79.0716 133.407Z" fill="black"/>
<path d="M99.574 117.562L102.042 115.378C102.239 114.754 102.511 114.157 102.85 113.598C103.118 113.374 107.611 113.024 107.611 113.024C107.611 113.024 107.698 115.399 107.344 116.016C106.989 116.633 103.32 116.901 103.32 116.901L101.354 118.796L99.574 117.562Z" fill="#EEC1BB"/>
<path d="M112.722 169.317C112.017 179.451 110.134 193.833 110.134 193.833L107.71 194.379C107.71 194.379 105.471 182.339 105.826 171.168C105.889 168.733 106.119 166.305 106.514 163.901C106.514 163.901 98.1163 160.674 92.285 157.786C89.5004 156.41 87.3 155.105 86.8796 154.264C85.5801 151.671 91.4879 145.577 91.4879 145.577C91.6735 145.725 95.2389 147.996 99.3885 150.688C104.898 154.259 111.433 158.572 112.492 159.648C113.126 160.265 113.071 164.261 112.722 169.317Z" fill="#EEC1BB"/>
<path opacity="0.2" d="M112.722 169.317C110.481 170.13 108.173 170.745 105.826 171.157C105.889 168.722 106.119 166.294 106.514 163.89C106.514 163.89 98.1162 160.663 92.2849 157.775L99.3829 150.677C104.892 154.248 111.428 158.561 112.487 159.637C113.126 160.265 113.071 164.261 112.722 169.317Z" fill="black"/>
<path d="M93.8193 143.884C93.8193 143.884 117.117 157.277 120.284 160.302C123.451 163.327 141.731 191.593 141.731 191.593L140.191 193.062C140.191 193.062 125.012 180.034 118.957 167.651L93.8412 155.514L93.8193 143.884Z" fill="#EEC1BB"/>
<path d="M76.096 119.156C76.1336 119.182 76.1739 119.204 76.2161 119.222C76.7881 119.546 77.4194 119.752 78.0725 119.828C79.9726 119.997 81.1956 119.571 81.8945 118.621C82.8664 117.212 82.8446 114.963 82.3095 112.315C82.1323 111.255 81.7877 110.23 81.2885 109.279C81.2885 109.279 81.2885 109.241 81.2885 109.235L81.2229 109.126C80.919 108.593 80.4864 108.145 79.9647 107.823C79.4429 107.501 78.8487 107.314 78.2363 107.281C77.7031 107.237 77.1666 107.251 76.6365 107.324C71.4495 107.996 71.728 116.743 76.096 119.156Z" fill="#EEC1BB"/>
<path opacity="0.2" d="M76.238 119.222C76.8114 119.528 77.4412 119.714 78.089 119.768C79.9836 119.937 81.2012 119.446 81.911 118.49C80.849 118.913 79.6783 118.98 78.5749 118.681C78.1699 118.588 77.7489 118.588 77.3439 118.681C76.9389 118.775 76.5607 118.96 76.238 119.222Z" fill="black"/>
<path d="M75.8887 123.491C75.4355 124.954 77.3083 125.729 77.3083 125.729C80.5843 124.637 81.3214 123.038 81.3214 123.038C78.8098 121.4 79.9127 117.61 79.9127 117.61L79.3667 117.829L75.5447 118.233C75.5447 118.233 76.4128 120.324 76.5111 120.794C76.9916 123.256 75.8887 123.491 75.8887 123.491Z" fill="#EBB376"/>
<path d="M81.3214 109.23C81.3214 109.23 82.1185 112.839 78.8808 114.886C78.8808 114.886 77.9253 118.888 75.7467 119.254C72.7765 119.746 69.5605 115.874 69.9864 111.408C70.5433 105.631 78.9627 103.988 81.3214 109.23Z" fill="#263238"/>
<path d="M80.464 113.598C80.3821 113.052 79.7924 112.134 78.9243 112.391C78.0561 112.648 77.8323 114.979 80.1582 115.17C80.5131 115.236 80.6551 114.799 80.464 113.598Z" fill="#EBB376"/>
<path d="M140.715 189.858L138.204 191.791C138.152 191.832 138.116 191.889 138.101 191.954C138.086 192.018 138.094 192.086 138.122 192.145L139.399 194.875C139.427 194.933 139.465 194.985 139.513 195.028C139.561 195.071 139.616 195.104 139.677 195.125C139.737 195.146 139.801 195.156 139.865 195.152C139.929 195.149 139.991 195.133 140.049 195.105C140.082 195.09 140.113 195.071 140.142 195.05C141.157 194.237 141.19 194.111 142.484 193.117C143.276 192.506 145.76 190.737 146.852 189.89C147.944 189.044 147.256 187.848 146.732 188.094C144.373 189.186 142.364 189.77 141.272 189.688C141.072 189.673 140.873 189.734 140.715 189.858Z" fill="#263238"/>
<path d="M141.261 189.809C141.247 189.815 141.232 189.818 141.216 189.815C141.201 189.813 141.187 189.806 141.175 189.795C141.164 189.785 141.156 189.771 141.153 189.756C141.15 189.74 141.152 189.725 141.158 189.71C141.207 189.579 141.654 188.405 142.058 188.334C142.103 188.325 142.15 188.328 142.192 188.345C142.235 188.361 142.272 188.39 142.299 188.427C142.354 188.483 142.395 188.551 142.417 188.627C142.439 188.702 142.441 188.782 142.424 188.859C142.359 189.081 142.218 189.275 142.026 189.405C141.787 189.568 141.531 189.704 141.261 189.809ZM141.376 189.585C141.761 189.454 142.082 189.18 142.271 188.82C142.282 188.769 142.28 188.715 142.264 188.665C142.249 188.614 142.221 188.568 142.184 188.531C142.14 188.487 142.102 188.476 142.086 188.493C142.052 188.499 142.02 188.514 141.993 188.536C141.723 188.843 141.513 189.199 141.376 189.585Z" fill="#407BFF"/>
<path d="M141.256 189.835C141.242 189.836 141.229 189.833 141.216 189.827C141.204 189.821 141.193 189.813 141.185 189.802C141.185 189.764 140.639 188.962 140.753 188.481C140.766 188.423 140.791 188.367 140.826 188.319C140.86 188.27 140.904 188.229 140.955 188.197C141.002 188.16 141.06 188.14 141.119 188.14C141.179 188.14 141.237 188.16 141.283 188.197C141.551 188.432 141.469 189.409 141.31 189.764L141.283 189.791L141.256 189.835ZM140.89 188.492C140.888 188.869 141.001 189.239 141.212 189.551C141.342 189.143 141.323 188.702 141.157 188.306C141.157 188.306 141.097 188.246 141.021 188.306H140.988C140.934 188.354 140.899 188.42 140.89 188.492Z" fill="#407BFF"/>
<path d="M110.56 192.221L107.387 192.281C107.322 192.285 107.26 192.31 107.211 192.352C107.161 192.395 107.127 192.452 107.114 192.516L106.519 195.47C106.501 195.593 106.532 195.719 106.604 195.821C106.676 195.922 106.784 195.992 106.907 196.016C106.943 196.021 106.98 196.021 107.016 196.016C108.31 195.967 108.414 195.885 110.046 195.852C111.051 195.852 114.081 195.88 115.468 195.852C116.855 195.825 117.008 194.449 116.44 194.334C113.879 193.832 111.952 193.1 111.122 192.385C110.962 192.261 110.761 192.202 110.56 192.221Z" fill="#263238"/>
<path d="M110.843 192.571C110.827 192.568 110.813 192.561 110.802 192.549C110.791 192.537 110.784 192.521 110.783 192.505C110.779 192.491 110.78 192.475 110.786 192.461C110.792 192.447 110.803 192.436 110.816 192.429C110.931 192.352 111.985 191.675 112.356 191.856C112.398 191.874 112.434 191.905 112.459 191.944C112.484 191.983 112.498 192.028 112.498 192.074C112.509 192.152 112.5 192.231 112.472 192.304C112.445 192.378 112.399 192.443 112.339 192.494C112.156 192.627 111.932 192.691 111.706 192.675C111.416 192.673 111.126 192.638 110.843 192.571ZM111.067 192.456C111.455 192.58 111.875 192.551 112.241 192.374C112.28 192.339 112.309 192.294 112.326 192.245C112.343 192.195 112.348 192.142 112.339 192.09C112.339 192.03 112.307 192.003 112.29 192.003C112.256 191.995 112.221 191.995 112.187 192.003C111.788 192.082 111.409 192.236 111.067 192.456Z" fill="#407BFF"/>
<path d="M110.822 192.588C110.809 192.581 110.798 192.571 110.791 192.558C110.785 192.546 110.782 192.531 110.783 192.517C110.783 192.473 110.843 191.523 111.22 191.201C111.265 191.161 111.318 191.13 111.375 191.113C111.433 191.095 111.494 191.089 111.553 191.097C111.613 191.096 111.671 191.115 111.718 191.152C111.765 191.189 111.797 191.241 111.81 191.299C111.881 191.643 111.264 192.391 110.898 192.577H110.86C110.849 192.585 110.835 192.589 110.822 192.588ZM111.324 191.294C111.099 191.597 110.97 191.96 110.953 192.337C111.291 192.075 111.701 191.512 111.652 191.299C111.652 191.299 111.652 191.223 111.537 191.223H111.499C111.434 191.224 111.371 191.249 111.324 191.294Z" fill="#407BFF"/>
<path d="M93.1694 140.297L81.6106 145.151C76.8331 133.275 70.3357 127.564 70.3357 127.564C74.9658 122.011 83.5161 119.456 83.5161 119.456C84.7791 120.484 85.8686 121.708 86.743 123.081C87.707 124.574 88.547 126.142 89.2546 127.772C90.972 131.806 92.2834 136.002 93.1694 140.297Z" fill="#407BFF"/>
<path d="M81.2121 111.643C81.2121 111.643 84.843 107.941 81.365 105.5C77.8869 103.06 74.4362 106.319 74.4362 106.319C74.4362 106.319 66.1752 108.4 67.988 113.887C69.8007 119.374 70.9582 119.827 68.3647 122.678C65.7712 125.528 63.1286 129.732 65.8367 132.38C68.5449 135.028 77.8815 132.189 80.6825 128.127C83.4834 124.064 78.3838 115.454 81.2121 111.643Z" fill="#263238"/>
<path d="M92.3285 136.737L79.7705 141.045C79.7705 141.045 82.5496 154.723 84.5644 157.01C86.5791 159.298 100.049 169.89 101.954 169.055C103.86 168.22 116.5 157.01 116.5 157.01L95.1131 142.345L92.3285 136.737Z" fill="#263238"/>
<path d="M90.4997 139.308L93.1696 138.424L92.5089 137.103L89.981 137.993L90.4997 139.308Z" fill="black"/>
<path d="M82.5169 140.619L79.7815 141.58L80.1473 142.749L82.8227 141.859L82.5169 140.619Z" fill="black"/>
<path d="M83.396 141.668L89.9644 139.489L89.473 138.168L83.0356 140.434L83.396 141.668Z" fill="black"/>
<path opacity="0.2" d="M89.2546 127.794C86.4919 127.472 84.9358 123.316 84.9358 123.316C85.5334 123.209 86.1369 123.138 86.743 123.104C87.707 124.596 88.5471 126.164 89.2546 127.794Z" fill="black"/>
<path d="M83.5161 119.456C86.5191 119.008 93.2349 121.444 93.8191 121.416C94.4034 121.389 100.917 116.268 100.917 116.268L102.61 117.758C102.61 117.758 95.7847 124.796 94.3815 124.856C92.9783 124.916 85.6455 124.387 85.6455 124.387C85.6455 124.387 83.8492 123.748 83.5052 122.126C83.2957 121.248 83.2995 120.333 83.5161 119.456Z" fill="#407BFF"/>
</svg>
