<svg width="74" height="21" viewBox="0 0 74 21" fill="none" xmlns="http://www.w3.org/2000/svg">
<path d="M10.6317 20.1454H7.07116V14.8287C5.64232 14.8126 4.36884 14.7991 4.05864 14.8063C4.03819 14.6682 4.05759 12.3298 4.05864 12.0489C4.57978 12.0314 5.68024 12.0082 7.07116 12.0033V1.35742H10.6321V1.36197H11.8914C13.3639 1.36197 14.6149 1.36092 15.6089 1.35882C15.6412 1.35882 15.6718 1.35742 15.7007 1.35742C16.6532 1.38777 17.5827 1.6577 18.4033 2.14227C19.4101 2.71137 20.2631 3.51711 20.8886 4.48983C21.5474 5.51672 21.9101 6.86971 21.9101 8.2996C21.9267 9.66721 21.5738 11.014 20.8886 12.1976C19.4805 14.5111 17.2064 14.8566 15.9756 14.8566C15.8532 14.8566 15.7309 14.8535 15.6086 14.847C14.6385 14.8514 13.4052 14.8535 11.9435 14.8535H11.4919V14.8688C11.2822 14.8688 10.9865 14.8688 10.6321 14.8657V20.1452L10.6317 20.1454ZM15.2727 12.0461C15.7985 12.0533 16.3157 11.9113 16.7642 11.6366C17.2127 11.3619 17.5741 10.9658 17.8067 10.4941C18.5145 9.17707 18.5145 7.24353 17.8067 5.99626C17.0947 4.74008 15.9205 4.16827 15.1308 4.16827C15.1152 4.16827 15.0991 4.16827 15.0836 4.16827C14.5418 4.16949 13.8917 4.17002 13.1512 4.17002C12.088 4.17002 11.0891 4.16862 10.7079 4.16827H10.6794V12.0353L10.8953 12.0405C11.2962 12.0417 12.2027 12.044 13.1687 12.044C13.9377 12.044 14.5822 12.0426 15.0836 12.0398C15.1453 12.0442 15.2087 12.0461 15.2727 12.0461Z" fill="#008ADD"/>
<path d="M23.376 20.1451V6.69816H26.9367V8.98629C26.9444 8.97616 26.9523 8.9662 26.9603 8.95623C28.9805 6.09191 31.6691 6.69816 31.6691 6.69816V9.79019C31.6691 9.79019 27.7974 9.23236 26.9367 13.2073V20.1453L23.376 20.1451Z" fill="#008ADD"/>
<path d="M40.0448 20.6555C39.015 20.6581 37.9941 20.4645 37.0368 20.0851C36.1271 19.7263 35.2937 19.1986 34.5804 18.5297C33.8812 17.8779 33.3182 17.0938 32.9242 16.2229C32.5239 15.3346 32.3169 14.3715 32.3169 13.3972C32.3169 12.4229 32.5239 11.4597 32.9242 10.5715C33.3183 9.70058 33.8812 8.91651 34.5804 8.26464C35.2937 7.59581 36.1272 7.06806 37.0368 6.70927C38.97 5.94847 41.1196 5.94847 43.0527 6.70927C43.9624 7.06809 44.7958 7.59584 45.5092 8.26464C46.2083 8.91654 46.7712 9.7006 47.1654 10.5715C47.5657 11.4597 47.7726 12.4229 47.7726 13.3972C47.7726 14.3715 47.5657 15.3346 47.1654 16.2229C46.7713 17.0938 46.2083 17.8778 45.5092 18.5297C44.7959 19.1985 43.9624 19.7263 43.0527 20.0851C42.0954 20.4645 41.0746 20.6581 40.0448 20.6555V20.6555ZM40.0448 9.20869C37.643 9.20817 35.6897 11.0868 35.6897 13.3961C35.6897 15.7054 37.643 17.5834 40.0448 17.5834C42.4465 17.5834 44.4003 15.7054 44.4003 13.3961C44.4003 11.0868 42.4463 9.20817 40.0448 9.20817V9.20869Z" fill="#008ADD"/>
<path d="M58.3743 20.1448V9.4919H53.3611V20.1448H49.8V9.4919H48.2393V6.69818H61.9349V6.71565V20.1444L58.3743 20.1448ZM49.8 6.69818C49.8 6.69818 49.7067 5.55 49.8 5.02904C49.8934 4.50808 49.9869 4.07415 50.6202 3.09025C51.2535 2.10635 52.3536 1.42741 52.3536 1.42741C53.127 0.953941 53.9629 0.591111 54.837 0.349483C56.1019 0.0128947 57.7793 -0.139846 59.2175 0.162315C62.4504 0.841783 62.989 2.97334 61.7482 4.37911C60.9671 5.00265 59.6632 5.03498 58.2342 3.72306C57.8191 3.30673 57.2841 3.03086 56.7042 2.93419C56.1243 2.83753 55.5287 2.92492 55.0011 3.1841C53.7603 3.87545 53.4552 4.7676 53.3613 5.57377C53.3849 6.05191 53.3613 6.69818 53.3613 6.69818H49.8Z" fill="#008ADD"/>
<path d="M68.2841 20.1692C65.1978 19.012 65.1232 15.7242 65.1214 15.5185V9.49244H63.54V6.69889H65.1214V2.30664H68.6822V6.69889H72.7464V9.49244H68.6822V15.4967H68.6836C69.3945 18.9802 72.9456 17.2874 72.9456 17.2874L73.9998 19.5364C72.954 20.212 71.7358 20.5723 70.4908 20.5743C69.7368 20.5735 68.9892 20.4363 68.2841 20.1692V20.1692Z" fill="#008ADD"/>
<path d="M0.60498 6.69727V20.144H4.16572V6.69727H0.60498Z" fill="#41D400"/>
<path d="M2.34179 4.73241C3.63512 4.73241 4.68358 3.68395 4.68358 2.39062C4.68358 1.09728 3.63512 0.0488281 2.34179 0.0488281C1.04845 0.0488281 0 1.09728 0 2.39062C0 3.68395 1.04845 4.73241 2.34179 4.73241Z" fill="#41D400"/>
</svg>
