<svg width="87" height="78" viewBox="0 0 87 78" fill="none" xmlns="http://www.w3.org/2000/svg">
<path d="M79.2129 33.6196V33.1196H78.7129H7.3784H6.8784V33.6196V74.751V75.251H7.3784H78.7129H79.2129V74.751V33.6196ZM18.6436 22.7707V22.2707H18.1436H17.2566H8.38684H7.49986H6.99986V22.7707V23.5829V30.0804V30.8926V31.3926H7.49986H8.38684H17.2566H18.1436H18.6436V30.8926V30.0804V23.5829V22.7707ZM79.0915 22.7707V22.2707H78.5915H77.7045H68.8347H67.9478H67.4478V22.7707V23.5829V30.0804V30.8926V31.3926H67.9478H68.8347H77.7045H78.5915H79.0915V30.8926V30.0804V23.5829V22.7707ZM63.9795 22.7707V22.2707H63.4795H62.5925H53.7228H52.8358H52.3358V22.7707V23.5829V30.0804V30.8926V31.3926H52.8358H53.7228H62.5925H63.4795H63.9795V30.8926V30.0804V23.5829V22.7707ZM48.8675 22.7707V22.2707H48.3675H47.4805H38.6108H37.7238H37.2238V22.7707V23.5829V30.0804V30.8926V31.3926H37.7238H38.6108H47.4805H48.3675H48.8675V30.8926V30.0804V23.5829V22.7707ZM33.7555 22.7707V22.2707H33.2555H32.3685H23.4987H22.6118H22.1118V22.7707V23.5829V30.0804V30.8926V31.3926H22.6118H23.4987H32.3685H33.2555H33.7555V30.8926V30.0804V23.5829V22.7707ZM81.4465 18.6287C81.5011 18.7591 81.531 18.9015 81.531 19.0509V76.3755C81.531 76.9865 81.022 77.4999 80.3719 77.4999H5.71956C5.06954 77.4999 4.56055 76.9865 4.56055 76.3755V19.0509C4.56055 18.9015 4.59043 18.7591 4.64502 18.6287H81.4465Z" fill="#008ADD" stroke="black"/>
<path d="M42.645 0.567733L42.7419 0.535775C43.0089 0.471101 43.2828 0.49645 43.5197 0.593066L43.5356 0.599573L43.552 0.604966L84.8593 14.2205L84.8597 14.2206C85.4644 14.4193 85.7058 14.9817 85.5223 15.4405C85.3272 15.9283 84.6894 16.2353 84.0677 16.031L83.9917 16.0061H83.9116H2.17234H2.0923L2.01627 16.031C1.39462 16.2353 0.756731 15.9283 0.561656 15.4405C0.37815 14.9817 0.619564 14.4193 1.22427 14.2206L1.22257 14.2154L1.22472 14.2205L42.645 0.567733Z" stroke="black"/>
<mask id="path-3-inside-1_30_2255" fill="white">
<path fill-rule="evenodd" clip-rule="evenodd" d="M29.9 40.4841H35.2927V44.8424V44.8725L35.6227 45.3712L35.954 44.8705L36.2854 45.3712L36.6167 44.8705L36.948 45.3712L37.2793 44.8705L37.6107 45.3712L37.942 44.8705L38.2733 45.3712L38.6047 44.8705L38.9361 45.3712L39.2661 44.8725V44.8705V40.4841H44.6587C45.0767 40.4841 45.4156 40.8255 45.4156 41.2466L45.3932 49.6079L44.9975 48.6286H44.0173L44.0173 48.6287L44.8613 50.7177H45.3902L45.3779 55.2866C45.3779 55.7077 45.0391 56.0491 44.6211 56.0491H29.8623C29.4443 56.0491 29.1055 55.7077 29.1055 55.2866L29.1204 49.7199L29.5235 50.7177H30.5038L29.6598 48.6286H29.1233L29.1431 41.2466C29.1431 40.8255 29.482 40.4841 29.9 40.4841L29.9 40.4841ZM31.0541 48.6286L31.8982 50.7177H30.9179L30.0739 48.6287V48.6286H31.0541V48.6286ZM32.4485 48.6286L33.2925 50.7177H32.3122L31.4683 48.6287L31.4683 48.6286H32.4485V48.6286ZM33.8428 48.6286L34.6868 50.7177H33.7066L32.8626 48.6287L32.8626 48.6286H33.8428V48.6286ZM35.2372 48.6286L36.0812 50.7177H35.1009L34.2569 48.6287L34.257 48.6286H35.2371L35.2372 48.6286ZM36.6315 48.6286L37.4755 50.7177H36.4952L35.6512 48.6287L35.6513 48.6286H36.6315L36.6315 48.6286ZM38.0259 48.6286L38.8699 50.7177H37.8896L37.0456 48.6287L37.0457 48.6286H38.0259V48.6286ZM39.4202 48.6286L40.2642 50.7177H39.2839L38.44 48.6287L38.44 48.6286H39.4202V48.6286ZM40.8146 48.6286L41.6586 50.7177H40.6783L39.8343 48.6287L39.8344 48.6286H40.8146V48.6286ZM42.2088 48.6286L43.0529 50.7177H42.0726L41.2286 48.6287L41.2287 48.6286H42.2088V48.6286ZM43.6032 48.6286L44.4472 50.7177H43.4669L42.623 48.6287L42.623 48.6286H43.6032V48.6286ZM30.5789 53.902H37.0585V54.4728H30.5789V53.902ZM41.4544 54.2182H43.9046V54.4728H41.4544V54.2182ZM42.295 53.9514V53.1697H42.574L42.016 52.388L41.4581 53.1697H41.7371V53.9514H42.295ZM43.6179 53.9514V53.1697H43.8969L43.3389 52.388L42.781 53.1697H43.06V53.9514H43.6179ZM30.5789 52.388H37.0585V52.9589H30.5789V52.388Z"/>
</mask>
<path fill-rule="evenodd" clip-rule="evenodd" d="M29.9 40.4841H35.2927V44.8424V44.8725L35.6227 45.3712L35.954 44.8705L36.2854 45.3712L36.6167 44.8705L36.948 45.3712L37.2793 44.8705L37.6107 45.3712L37.942 44.8705L38.2733 45.3712L38.6047 44.8705L38.9361 45.3712L39.2661 44.8725V44.8705V40.4841H44.6587C45.0767 40.4841 45.4156 40.8255 45.4156 41.2466L45.3932 49.6079L44.9975 48.6286H44.0173L44.0173 48.6287L44.8613 50.7177H45.3902L45.3779 55.2866C45.3779 55.7077 45.0391 56.0491 44.6211 56.0491H29.8623C29.4443 56.0491 29.1055 55.7077 29.1055 55.2866L29.1204 49.7199L29.5235 50.7177H30.5038L29.6598 48.6286H29.1233L29.1431 41.2466C29.1431 40.8255 29.482 40.4841 29.9 40.4841L29.9 40.4841ZM31.0541 48.6286L31.8982 50.7177H30.9179L30.0739 48.6287V48.6286H31.0541V48.6286ZM32.4485 48.6286L33.2925 50.7177H32.3122L31.4683 48.6287L31.4683 48.6286H32.4485V48.6286ZM33.8428 48.6286L34.6868 50.7177H33.7066L32.8626 48.6287L32.8626 48.6286H33.8428V48.6286ZM35.2372 48.6286L36.0812 50.7177H35.1009L34.2569 48.6287L34.257 48.6286H35.2371L35.2372 48.6286ZM36.6315 48.6286L37.4755 50.7177H36.4952L35.6512 48.6287L35.6513 48.6286H36.6315L36.6315 48.6286ZM38.0259 48.6286L38.8699 50.7177H37.8896L37.0456 48.6287L37.0457 48.6286H38.0259V48.6286ZM39.4202 48.6286L40.2642 50.7177H39.2839L38.44 48.6287L38.44 48.6286H39.4202V48.6286ZM40.8146 48.6286L41.6586 50.7177H40.6783L39.8343 48.6287L39.8344 48.6286H40.8146V48.6286ZM42.2088 48.6286L43.0529 50.7177H42.0726L41.2286 48.6287L41.2287 48.6286H42.2088V48.6286ZM43.6032 48.6286L44.4472 50.7177H43.4669L42.623 48.6287L42.623 48.6286H43.6032V48.6286ZM30.5789 53.902H37.0585V54.4728H30.5789V53.902ZM41.4544 54.2182H43.9046V54.4728H41.4544V54.2182ZM42.295 53.9514V53.1697H42.574L42.016 52.388L41.4581 53.1697H41.7371V53.9514H42.295ZM43.6179 53.9514V53.1697H43.8969L43.3389 52.388L42.781 53.1697H43.06V53.9514H43.6179ZM30.5789 52.388H37.0585V52.9589H30.5789V52.388Z" fill="#41D400" stroke="black" stroke-width="2" mask="url(#path-3-inside-1_30_2255)"/>
<mask id="path-4-inside-2_30_2255" fill="white">
<path d="M33.2905 40.4841C33.0816 40.4841 32.9121 40.6536 32.9121 40.8626C32.9121 41.0715 33.0816 41.241 33.2905 41.241H41.2362C41.4452 41.241 41.6146 41.0715 41.6146 40.8626C41.6146 40.6536 41.4452 40.4841 41.2362 40.4841H33.2905Z"/>
</mask>
<path d="M33.2905 40.4841C33.0816 40.4841 32.9121 40.6536 32.9121 40.8626C32.9121 41.0715 33.0816 41.241 33.2905 41.241H41.2362C41.4452 41.241 41.6146 41.0715 41.6146 40.8626C41.6146 40.6536 41.4452 40.4841 41.2362 40.4841H33.2905Z" fill="#008ADD"/>
<path d="M33.2905 39.4841C32.5294 39.4841 31.9121 40.1012 31.9121 40.8626H33.9121C33.9121 41.206 33.6338 41.4841 33.2905 41.4841V39.4841ZM31.9121 40.8626C31.9121 41.6238 32.5293 42.241 33.2905 42.241V40.241C33.6339 40.241 33.9121 40.5192 33.9121 40.8626H31.9121ZM33.2905 42.241H41.2362V40.241H33.2905V42.241ZM41.2362 42.241C41.9976 42.241 42.6146 41.6237 42.6146 40.8626H40.6146C40.6146 40.5193 40.8928 40.241 41.2362 40.241V42.241ZM42.6146 40.8626C42.6146 40.1013 41.9974 39.4841 41.2362 39.4841V41.4841C40.8929 41.4841 40.6146 41.2058 40.6146 40.8626H42.6146ZM41.2362 39.4841H33.2905V41.4841H41.2362V39.4841Z" fill="black" mask="url(#path-4-inside-2_30_2255)"/>
<mask id="path-6-inside-3_30_2255" fill="white">
<path fill-rule="evenodd" clip-rule="evenodd" d="M50.5856 57.5237H55.9782V61.8819V61.9121L56.3082 62.4107L56.6396 61.9101L56.9709 62.4107L57.3022 61.9101L57.6335 62.4107L57.9649 61.9101L58.2963 62.4107L58.6276 61.9101L58.9589 62.4107L59.2903 61.9101L59.6216 62.4107L59.9517 61.912V61.9101V57.5237H65.3443C65.7623 57.5237 66.1011 57.865 66.1011 58.2861L66.0787 66.6475L65.6831 65.6682H64.7029L64.7028 65.6682L65.5468 67.7572H66.0758L66.0635 72.3262C66.0635 72.7472 65.7246 73.0886 65.3066 73.0886H50.5479C50.1299 73.0886 49.791 72.7472 49.791 72.3262L49.8059 66.7595L50.2091 67.7572H51.1893L50.3454 65.6682H49.8089L49.8287 58.2861C49.8287 57.865 50.1675 57.5237 50.5855 57.5237L50.5856 57.5237ZM51.7397 65.6682L52.5837 67.7572H51.6035L50.7595 65.6682V65.6682H51.7397ZM53.1341 65.6682L53.9781 67.7572H52.9978L52.1538 65.6682L52.1539 65.6682H53.1341H53.1341ZM54.5284 65.6682L55.3724 67.7572H54.3921L53.5481 65.6682L53.5482 65.6682H54.5284ZM55.9227 65.6682L56.7667 67.7572H55.7864L54.9424 65.6682L54.9426 65.6682H55.9227ZM57.3171 65.6682L58.1611 67.7572H57.1807L56.3368 65.6682L56.3369 65.6682H57.3171ZM58.7114 65.6682L59.5554 67.7572H58.5752L57.7311 65.6682L57.7312 65.6682H58.7114ZM60.1058 65.6682L60.9498 67.7572H59.9695L59.1255 65.6682L59.1256 65.6682H60.1058H60.1058ZM61.5001 65.6682L62.3441 67.7572H61.3638L60.5198 65.6682L60.5199 65.6682H61.5001ZM62.8944 65.6682L63.7384 67.7572H62.7581L61.9141 65.6682L61.9143 65.6682H62.8944ZM64.2888 65.6682L65.1328 67.7572H64.1525L63.3085 65.6682L63.3086 65.6682H64.2888ZM51.2644 70.9415H57.744V71.5123H51.2644V70.9415ZM62.1399 71.2578H64.5901V71.5123H62.1399V71.2578ZM62.9806 70.991V70.2093H63.2595L62.7016 69.4276L62.1436 70.2093H62.4226V70.991H62.9806ZM64.3035 70.991V70.2093H64.5824L64.0245 69.4276L63.4666 70.2093H63.7455V70.991H64.3035ZM51.2644 69.4276H57.744V69.9984H51.2644V69.4276Z"/>
</mask>
<path fill-rule="evenodd" clip-rule="evenodd" d="M50.5856 57.5237H55.9782V61.8819V61.9121L56.3082 62.4107L56.6396 61.9101L56.9709 62.4107L57.3022 61.9101L57.6335 62.4107L57.9649 61.9101L58.2963 62.4107L58.6276 61.9101L58.9589 62.4107L59.2903 61.9101L59.6216 62.4107L59.9517 61.912V61.9101V57.5237H65.3443C65.7623 57.5237 66.1011 57.865 66.1011 58.2861L66.0787 66.6475L65.6831 65.6682H64.7029L64.7028 65.6682L65.5468 67.7572H66.0758L66.0635 72.3262C66.0635 72.7472 65.7246 73.0886 65.3066 73.0886H50.5479C50.1299 73.0886 49.791 72.7472 49.791 72.3262L49.8059 66.7595L50.2091 67.7572H51.1893L50.3454 65.6682H49.8089L49.8287 58.2861C49.8287 57.865 50.1675 57.5237 50.5855 57.5237L50.5856 57.5237ZM51.7397 65.6682L52.5837 67.7572H51.6035L50.7595 65.6682V65.6682H51.7397ZM53.1341 65.6682L53.9781 67.7572H52.9978L52.1538 65.6682L52.1539 65.6682H53.1341H53.1341ZM54.5284 65.6682L55.3724 67.7572H54.3921L53.5481 65.6682L53.5482 65.6682H54.5284ZM55.9227 65.6682L56.7667 67.7572H55.7864L54.9424 65.6682L54.9426 65.6682H55.9227ZM57.3171 65.6682L58.1611 67.7572H57.1807L56.3368 65.6682L56.3369 65.6682H57.3171ZM58.7114 65.6682L59.5554 67.7572H58.5752L57.7311 65.6682L57.7312 65.6682H58.7114ZM60.1058 65.6682L60.9498 67.7572H59.9695L59.1255 65.6682L59.1256 65.6682H60.1058H60.1058ZM61.5001 65.6682L62.3441 67.7572H61.3638L60.5198 65.6682L60.5199 65.6682H61.5001ZM62.8944 65.6682L63.7384 67.7572H62.7581L61.9141 65.6682L61.9143 65.6682H62.8944ZM64.2888 65.6682L65.1328 67.7572H64.1525L63.3085 65.6682L63.3086 65.6682H64.2888ZM51.2644 70.9415H57.744V71.5123H51.2644V70.9415ZM62.1399 71.2578H64.5901V71.5123H62.1399V71.2578ZM62.9806 70.991V70.2093H63.2595L62.7016 69.4276L62.1436 70.2093H62.4226V70.991H62.9806ZM64.3035 70.991V70.2093H64.5824L64.0245 69.4276L63.4666 70.2093H63.7455V70.991H64.3035ZM51.2644 69.4276H57.744V69.9984H51.2644V69.4276Z" fill="#41D400" stroke="black" stroke-width="2" mask="url(#path-6-inside-3_30_2255)"/>
<mask id="path-7-inside-4_30_2255" fill="white">
<path fill-rule="evenodd" clip-rule="evenodd" d="M12.1578 40.4841H17.5504V44.8424V44.8725L17.8805 45.3712L18.2118 44.8705L18.5432 45.3712L18.8745 44.8705L19.2058 45.3712L19.5371 44.8705L19.8685 45.3712L20.1998 44.8705L20.5311 45.3712L20.8625 44.8705L21.1939 45.3712L21.5239 44.8725V44.8705V40.4841H26.9165C27.3345 40.4841 27.6734 40.8255 27.6734 41.2466L27.651 49.6079L27.2553 48.6286H26.2751L26.2751 48.6287L27.1191 50.7177H27.648L27.6358 55.2866C27.6358 55.7077 27.2969 56.0491 26.8789 56.0491H12.1202C11.7021 56.0491 11.3633 55.7077 11.3633 55.2866L11.3782 49.7199L11.7813 50.7177H12.7616L11.9176 48.6286H11.3811L11.4009 41.2466C11.4009 40.8255 11.7398 40.4841 12.1578 40.4841L12.1578 40.4841ZM13.312 48.6286L14.156 50.7177H13.1757L12.3317 48.6287L12.3317 48.6286H13.312L13.312 48.6286ZM14.7063 48.6286L15.5503 50.7177H14.5701L13.726 48.6287L13.7261 48.6286H14.7063V48.6286ZM16.1006 48.6286L16.9446 50.7177H15.9643L15.1204 48.6287L15.1204 48.6286H16.1006L16.1006 48.6286ZM17.495 48.6286L18.339 50.7177H17.3587L16.5147 48.6287L16.5148 48.6286H17.495L17.495 48.6286ZM18.8893 48.6286L19.7333 50.7177H18.753L17.909 48.6287L17.9091 48.6286H18.8893V48.6286ZM20.2837 48.6286L21.1277 50.7177H20.1474L19.3034 48.6287L19.3035 48.6286H20.2837V48.6286ZM21.678 48.6286L22.522 50.7177H21.5418L20.6977 48.6287L20.6978 48.6286H21.678V48.6286ZM23.0723 48.6286L23.9163 50.7177H22.9361L22.0921 48.6287L22.0922 48.6286H23.0723V48.6286ZM24.4667 48.6286L25.3107 50.7177H24.3304L23.4864 48.6287L23.4865 48.6286H24.4667V48.6286ZM25.861 48.6286L26.705 50.7177H25.7247L24.8807 48.6287L24.8808 48.6286H25.861V48.6286ZM12.8367 53.902H19.3163V54.4728H12.8367V53.902ZM23.7122 54.2182H26.1624V54.4728H23.7122V54.2182ZM24.5528 53.9514V53.1697H24.8317L24.2739 52.388L23.7159 53.1697H23.9948V53.9514H24.5528ZM25.8757 53.9514V53.1697H26.1546L25.5967 52.388L25.0388 53.1697H25.3177V53.9514H25.8757ZM12.8367 52.388H19.3163V52.9589H12.8367V52.388Z"/>
</mask>
<path fill-rule="evenodd" clip-rule="evenodd" d="M12.1578 40.4841H17.5504V44.8424V44.8725L17.8805 45.3712L18.2118 44.8705L18.5432 45.3712L18.8745 44.8705L19.2058 45.3712L19.5371 44.8705L19.8685 45.3712L20.1998 44.8705L20.5311 45.3712L20.8625 44.8705L21.1939 45.3712L21.5239 44.8725V44.8705V40.4841H26.9165C27.3345 40.4841 27.6734 40.8255 27.6734 41.2466L27.651 49.6079L27.2553 48.6286H26.2751L26.2751 48.6287L27.1191 50.7177H27.648L27.6358 55.2866C27.6358 55.7077 27.2969 56.0491 26.8789 56.0491H12.1202C11.7021 56.0491 11.3633 55.7077 11.3633 55.2866L11.3782 49.7199L11.7813 50.7177H12.7616L11.9176 48.6286H11.3811L11.4009 41.2466C11.4009 40.8255 11.7398 40.4841 12.1578 40.4841L12.1578 40.4841ZM13.312 48.6286L14.156 50.7177H13.1757L12.3317 48.6287L12.3317 48.6286H13.312L13.312 48.6286ZM14.7063 48.6286L15.5503 50.7177H14.5701L13.726 48.6287L13.7261 48.6286H14.7063V48.6286ZM16.1006 48.6286L16.9446 50.7177H15.9643L15.1204 48.6287L15.1204 48.6286H16.1006L16.1006 48.6286ZM17.495 48.6286L18.339 50.7177H17.3587L16.5147 48.6287L16.5148 48.6286H17.495L17.495 48.6286ZM18.8893 48.6286L19.7333 50.7177H18.753L17.909 48.6287L17.9091 48.6286H18.8893V48.6286ZM20.2837 48.6286L21.1277 50.7177H20.1474L19.3034 48.6287L19.3035 48.6286H20.2837V48.6286ZM21.678 48.6286L22.522 50.7177H21.5418L20.6977 48.6287L20.6978 48.6286H21.678V48.6286ZM23.0723 48.6286L23.9163 50.7177H22.9361L22.0921 48.6287L22.0922 48.6286H23.0723V48.6286ZM24.4667 48.6286L25.3107 50.7177H24.3304L23.4864 48.6287L23.4865 48.6286H24.4667V48.6286ZM25.861 48.6286L26.705 50.7177H25.7247L24.8807 48.6287L24.8808 48.6286H25.861V48.6286ZM12.8367 53.902H19.3163V54.4728H12.8367V53.902ZM23.7122 54.2182H26.1624V54.4728H23.7122V54.2182ZM24.5528 53.9514V53.1697H24.8317L24.2739 52.388L23.7159 53.1697H23.9948V53.9514H24.5528ZM25.8757 53.9514V53.1697H26.1546L25.5967 52.388L25.0388 53.1697H25.3177V53.9514H25.8757ZM12.8367 52.388H19.3163V52.9589H12.8367V52.388Z" fill="#41D400" stroke="black" stroke-width="2" mask="url(#path-7-inside-4_30_2255)"/>
<mask id="path-8-inside-5_30_2255" fill="white">
<path d="M15.5484 40.4841C15.3394 40.4841 15.1699 40.6536 15.1699 40.8626C15.1699 41.0715 15.3394 41.241 15.5484 41.241H23.494C23.7029 41.241 23.8724 41.0715 23.8724 40.8626C23.8724 40.6536 23.7029 40.4841 23.494 40.4841H15.5484Z"/>
</mask>
<path d="M15.5484 40.4841C15.3394 40.4841 15.1699 40.6536 15.1699 40.8626C15.1699 41.0715 15.3394 41.241 15.5484 41.241H23.494C23.7029 41.241 23.8724 41.0715 23.8724 40.8626C23.8724 40.6536 23.7029 40.4841 23.494 40.4841H15.5484Z" fill="#008ADD"/>
<path d="M15.5484 39.4841C14.7872 39.4841 14.1699 40.1012 14.1699 40.8626H16.1699C16.1699 41.2059 15.8916 41.4841 15.5484 41.4841V39.4841ZM14.1699 40.8626C14.1699 41.6238 14.7871 42.241 15.5484 42.241V40.241C15.8917 40.241 16.1699 40.5192 16.1699 40.8626H14.1699ZM15.5484 42.241H23.494V40.241H15.5484V42.241ZM23.494 42.241C24.2552 42.241 24.8724 41.6238 24.8724 40.8626H22.8724C22.8724 40.5192 23.1506 40.241 23.494 40.241V42.241ZM24.8724 40.8626C24.8724 40.1012 24.2551 39.4841 23.494 39.4841V41.4841C23.1507 41.4841 22.8724 41.2059 22.8724 40.8626H24.8724ZM23.494 39.4841H15.5484V41.4841H23.494V39.4841Z" fill="black" mask="url(#path-8-inside-5_30_2255)"/>
<mask id="path-10-inside-6_30_2255" fill="white">
<path fill-rule="evenodd" clip-rule="evenodd" d="M29.9 57.5237H35.2927V61.8819V61.9121L35.6227 62.4107L35.954 61.9101L36.2854 62.4107L36.6167 61.9101L36.948 62.4107L37.2793 61.9101L37.6107 62.4107L37.942 61.9101L38.2733 62.4107L38.6047 61.9101L38.9361 62.4107L39.2661 61.912V61.9101V57.5237H44.6587C45.0767 57.5237 45.4156 57.865 45.4156 58.2861L45.3932 66.6475L44.9975 65.6682H44.0173L44.0173 65.6682L44.8613 67.7572H45.3902L45.3779 72.3262C45.3779 72.7472 45.0391 73.0886 44.6211 73.0886H29.8623C29.4443 73.0886 29.1055 72.7472 29.1055 72.3262L29.1204 66.7595L29.5235 67.7572H30.5038L29.6598 65.6682H29.1233L29.1431 58.2861C29.1431 57.865 29.482 57.5237 29.9 57.5237L29.9 57.5237ZM31.0541 65.6682L31.8982 67.7572H30.9179L30.0739 65.6682V65.6682H31.0541ZM32.4485 65.6682L33.2925 67.7572H32.3122L31.4683 65.6682L31.4683 65.6682H32.4485ZM33.8428 65.6682L34.6868 67.7572H33.7066L32.8626 65.6682L32.8626 65.6682H33.8428ZM35.2372 65.6682L36.0812 67.7572H35.1009L34.2569 65.6682L34.257 65.6682H35.2371H35.2372ZM36.6315 65.6682L37.4755 67.7572H36.4952L35.6512 65.6682L35.6513 65.6682H36.6315H36.6315ZM38.0259 65.6682L38.8699 67.7572H37.8896L37.0456 65.6682L37.0457 65.6682H38.0259ZM39.4202 65.6682L40.2642 67.7572H39.2839L38.44 65.6682L38.44 65.6682H39.4202ZM40.8146 65.6682L41.6586 67.7572H40.6783L39.8343 65.6682L39.8344 65.6682H40.8146ZM42.2088 65.6682L43.0529 67.7572H42.0726L41.2286 65.6682L41.2287 65.6682H42.2088ZM43.6032 65.6682L44.4472 67.7572H43.4669L42.623 65.6682L42.623 65.6682H43.6032ZM30.5789 70.9415H37.0585V71.5123H30.5789V70.9415ZM41.4544 71.2578H43.9046V71.5123H41.4544V71.2578ZM42.295 70.991V70.2093H42.574L42.016 69.4276L41.4581 70.2093H41.7371V70.991H42.295ZM43.6179 70.991V70.2093H43.8969L43.3389 69.4276L42.781 70.2093H43.06V70.991H43.6179ZM30.5789 69.4276H37.0585V69.9984H30.5789V69.4276Z"/>
</mask>
<path fill-rule="evenodd" clip-rule="evenodd" d="M29.9 57.5237H35.2927V61.8819V61.9121L35.6227 62.4107L35.954 61.9101L36.2854 62.4107L36.6167 61.9101L36.948 62.4107L37.2793 61.9101L37.6107 62.4107L37.942 61.9101L38.2733 62.4107L38.6047 61.9101L38.9361 62.4107L39.2661 61.912V61.9101V57.5237H44.6587C45.0767 57.5237 45.4156 57.865 45.4156 58.2861L45.3932 66.6475L44.9975 65.6682H44.0173L44.0173 65.6682L44.8613 67.7572H45.3902L45.3779 72.3262C45.3779 72.7472 45.0391 73.0886 44.6211 73.0886H29.8623C29.4443 73.0886 29.1055 72.7472 29.1055 72.3262L29.1204 66.7595L29.5235 67.7572H30.5038L29.6598 65.6682H29.1233L29.1431 58.2861C29.1431 57.865 29.482 57.5237 29.9 57.5237L29.9 57.5237ZM31.0541 65.6682L31.8982 67.7572H30.9179L30.0739 65.6682V65.6682H31.0541ZM32.4485 65.6682L33.2925 67.7572H32.3122L31.4683 65.6682L31.4683 65.6682H32.4485ZM33.8428 65.6682L34.6868 67.7572H33.7066L32.8626 65.6682L32.8626 65.6682H33.8428ZM35.2372 65.6682L36.0812 67.7572H35.1009L34.2569 65.6682L34.257 65.6682H35.2371H35.2372ZM36.6315 65.6682L37.4755 67.7572H36.4952L35.6512 65.6682L35.6513 65.6682H36.6315H36.6315ZM38.0259 65.6682L38.8699 67.7572H37.8896L37.0456 65.6682L37.0457 65.6682H38.0259ZM39.4202 65.6682L40.2642 67.7572H39.2839L38.44 65.6682L38.44 65.6682H39.4202ZM40.8146 65.6682L41.6586 67.7572H40.6783L39.8343 65.6682L39.8344 65.6682H40.8146ZM42.2088 65.6682L43.0529 67.7572H42.0726L41.2286 65.6682L41.2287 65.6682H42.2088ZM43.6032 65.6682L44.4472 67.7572H43.4669L42.623 65.6682L42.623 65.6682H43.6032ZM30.5789 70.9415H37.0585V71.5123H30.5789V70.9415ZM41.4544 71.2578H43.9046V71.5123H41.4544V71.2578ZM42.295 70.991V70.2093H42.574L42.016 69.4276L41.4581 70.2093H41.7371V70.991H42.295ZM43.6179 70.991V70.2093H43.8969L43.3389 69.4276L42.781 70.2093H43.06V70.991H43.6179ZM30.5789 69.4276H37.0585V69.9984H30.5789V69.4276Z" fill="#41D400" stroke="black" stroke-width="2" mask="url(#path-10-inside-6_30_2255)"/>
<mask id="path-11-inside-7_30_2255" fill="white">
<path d="M33.2905 57.5237C33.0816 57.5237 32.9121 57.6931 32.9121 57.9021C32.9121 58.1111 33.0816 58.2805 33.2905 58.2805H41.2362C41.4452 58.2805 41.6146 58.1111 41.6146 57.9021C41.6146 57.6931 41.4452 57.5237 41.2362 57.5237H33.2905Z"/>
</mask>
<path d="M33.2905 57.5237C33.0816 57.5237 32.9121 57.6931 32.9121 57.9021C32.9121 58.1111 33.0816 58.2805 33.2905 58.2805H41.2362C41.4452 58.2805 41.6146 58.1111 41.6146 57.9021C41.6146 57.6931 41.4452 57.5237 41.2362 57.5237H33.2905Z" fill="#008ADD"/>
<path d="M33.2905 56.5237C32.5294 56.5237 31.9121 57.1407 31.9121 57.9021H33.9121C33.9121 58.2455 33.6338 58.5237 33.2905 58.5237V56.5237ZM31.9121 57.9021C31.9121 58.6634 32.5293 59.2805 33.2905 59.2805V57.2805C33.6339 57.2805 33.9121 57.5588 33.9121 57.9021H31.9121ZM33.2905 59.2805H41.2362V57.2805H33.2905V59.2805ZM41.2362 59.2805C41.9975 59.2805 42.6146 58.6632 42.6146 57.9021H40.6146C40.6146 57.5589 40.8928 57.2805 41.2362 57.2805V59.2805ZM42.6146 57.9021C42.6146 57.1408 41.9974 56.5237 41.2362 56.5237V58.5237C40.8929 58.5237 40.6146 58.2454 40.6146 57.9021H42.6146ZM41.2362 56.5237H33.2905V58.5237H41.2362V56.5237Z" fill="black" mask="url(#path-11-inside-7_30_2255)"/>
<mask id="path-13-inside-8_30_2255" fill="white">
<path d="M53.9761 57.5237C53.7671 57.5237 53.5977 57.6931 53.5977 57.9021C53.5977 58.1111 53.7671 58.2805 53.9761 58.2805H61.9217C62.1307 58.2805 62.3001 58.1111 62.3001 57.9021C62.3001 57.6931 62.1307 57.5237 61.9217 57.5237H53.9761Z"/>
</mask>
<path d="M53.9761 57.5237C53.7671 57.5237 53.5977 57.6931 53.5977 57.9021C53.5977 58.1111 53.7671 58.2805 53.9761 58.2805H61.9217C62.1307 58.2805 62.3001 58.1111 62.3001 57.9021C62.3001 57.6931 62.1307 57.5237 61.9217 57.5237H53.9761Z" fill="#008ADD"/>
<path d="M53.9761 56.5237C53.215 56.5237 52.5977 57.1407 52.5977 57.9021H54.5977C54.5977 58.2455 54.3193 58.5237 53.9761 58.5237V56.5237ZM52.5977 57.9021C52.5977 58.6633 53.2149 59.2805 53.9761 59.2805V57.2805C54.3194 57.2805 54.5977 57.5588 54.5977 57.9021H52.5977ZM53.9761 59.2805H61.9217V57.2805H53.9761V59.2805ZM61.9217 59.2805C62.6831 59.2805 63.3001 58.6632 63.3001 57.9021H61.3001C61.3001 57.5589 61.5783 57.2805 61.9217 57.2805V59.2805ZM63.3001 57.9021C63.3001 57.1408 62.683 56.5237 61.9217 56.5237V58.5237C61.5784 58.5237 61.3001 58.2454 61.3001 57.9021H63.3001ZM61.9217 56.5237H53.9761V58.5237H61.9217V56.5237Z" fill="black" mask="url(#path-13-inside-8_30_2255)"/>
<mask id="path-15-inside-9_30_2255" fill="white">
<path fill-rule="evenodd" clip-rule="evenodd" d="M12.1578 57.5237H17.5504V61.8819V61.9121L17.8805 62.4107L18.2118 61.9101L18.5432 62.4107L18.8745 61.9101L19.2058 62.4107L19.5371 61.9101L19.8685 62.4107L20.1998 61.9101L20.5311 62.4107L20.8625 61.9101L21.1939 62.4107L21.5239 61.912V61.9101V57.5237H26.9165C27.3345 57.5237 27.6734 57.865 27.6734 58.2861L27.651 66.6475L27.2553 65.6682H26.2751L26.2751 65.6682L27.1191 67.7572H27.648L27.6358 72.3262C27.6358 72.7472 27.2969 73.0886 26.8789 73.0886H12.1202C11.7021 73.0886 11.3633 72.7472 11.3633 72.3262L11.3782 66.7595L11.7813 67.7572H12.7616L11.9176 65.6682H11.3811L11.4009 58.2861C11.4009 57.865 11.7398 57.5237 12.1578 57.5237L12.1578 57.5237ZM13.312 65.6682L14.156 67.7572H13.1757L12.3317 65.6682L12.3317 65.6682H13.312H13.312ZM14.7063 65.6682L15.5503 67.7572H14.5701L13.726 65.6682L13.7261 65.6682H14.7063ZM16.1006 65.6682L16.9446 67.7572H15.9643L15.1204 65.6682L15.1204 65.6682H16.1006H16.1006ZM17.495 65.6682L18.339 67.7572H17.3587L16.5147 65.6682L16.5148 65.6682H17.495H17.495ZM18.8893 65.6682L19.7333 67.7572H18.753L17.909 65.6682L17.9091 65.6682H18.8893ZM20.2837 65.6682L21.1277 67.7572H20.1474L19.3034 65.6682L19.3035 65.6682H20.2837ZM21.678 65.6682L22.522 67.7572H21.5418L20.6977 65.6682L20.6978 65.6682H21.678ZM23.0723 65.6682L23.9163 67.7572H22.9361L22.0921 65.6682L22.0922 65.6682H23.0723ZM24.4667 65.6682L25.3107 67.7572H24.3304L23.4864 65.6682L23.4865 65.6682H24.4667ZM25.861 65.6682L26.705 67.7572H25.7247L24.8807 65.6682L24.8808 65.6682H25.861ZM12.8367 70.9415H19.3163V71.5123H12.8367V70.9415ZM23.7122 71.2578H26.1624V71.5123H23.7122V71.2578ZM24.5528 70.991V70.2093H24.8317L24.2739 69.4276L23.7159 70.2093H23.9948V70.991H24.5528ZM25.8757 70.991V70.2093H26.1546L25.5967 69.4276L25.0388 70.2093H25.3177V70.991H25.8757ZM12.8367 69.4276H19.3163V69.9984H12.8367V69.4276Z"/>
</mask>
<path fill-rule="evenodd" clip-rule="evenodd" d="M12.1578 57.5237H17.5504V61.8819V61.9121L17.8805 62.4107L18.2118 61.9101L18.5432 62.4107L18.8745 61.9101L19.2058 62.4107L19.5371 61.9101L19.8685 62.4107L20.1998 61.9101L20.5311 62.4107L20.8625 61.9101L21.1939 62.4107L21.5239 61.912V61.9101V57.5237H26.9165C27.3345 57.5237 27.6734 57.865 27.6734 58.2861L27.651 66.6475L27.2553 65.6682H26.2751L26.2751 65.6682L27.1191 67.7572H27.648L27.6358 72.3262C27.6358 72.7472 27.2969 73.0886 26.8789 73.0886H12.1202C11.7021 73.0886 11.3633 72.7472 11.3633 72.3262L11.3782 66.7595L11.7813 67.7572H12.7616L11.9176 65.6682H11.3811L11.4009 58.2861C11.4009 57.865 11.7398 57.5237 12.1578 57.5237L12.1578 57.5237ZM13.312 65.6682L14.156 67.7572H13.1757L12.3317 65.6682L12.3317 65.6682H13.312H13.312ZM14.7063 65.6682L15.5503 67.7572H14.5701L13.726 65.6682L13.7261 65.6682H14.7063ZM16.1006 65.6682L16.9446 67.7572H15.9643L15.1204 65.6682L15.1204 65.6682H16.1006H16.1006ZM17.495 65.6682L18.339 67.7572H17.3587L16.5147 65.6682L16.5148 65.6682H17.495H17.495ZM18.8893 65.6682L19.7333 67.7572H18.753L17.909 65.6682L17.9091 65.6682H18.8893ZM20.2837 65.6682L21.1277 67.7572H20.1474L19.3034 65.6682L19.3035 65.6682H20.2837ZM21.678 65.6682L22.522 67.7572H21.5418L20.6977 65.6682L20.6978 65.6682H21.678ZM23.0723 65.6682L23.9163 67.7572H22.9361L22.0921 65.6682L22.0922 65.6682H23.0723ZM24.4667 65.6682L25.3107 67.7572H24.3304L23.4864 65.6682L23.4865 65.6682H24.4667ZM25.861 65.6682L26.705 67.7572H25.7247L24.8807 65.6682L24.8808 65.6682H25.861ZM12.8367 70.9415H19.3163V71.5123H12.8367V70.9415ZM23.7122 71.2578H26.1624V71.5123H23.7122V71.2578ZM24.5528 70.991V70.2093H24.8317L24.2739 69.4276L23.7159 70.2093H23.9948V70.991H24.5528ZM25.8757 70.991V70.2093H26.1546L25.5967 69.4276L25.0388 70.2093H25.3177V70.991H25.8757ZM12.8367 69.4276H19.3163V69.9984H12.8367V69.4276Z" fill="#41D400" stroke="black" stroke-width="2" mask="url(#path-15-inside-9_30_2255)"/>
<mask id="path-16-inside-10_30_2255" fill="white">
<path d="M15.5484 57.5237C15.3394 57.5237 15.1699 57.6931 15.1699 57.9021C15.1699 58.1111 15.3394 58.2805 15.5484 58.2805H23.494C23.7029 58.2805 23.8724 58.1111 23.8724 57.9021C23.8724 57.6931 23.7029 57.5237 23.494 57.5237H15.5484Z"/>
</mask>
<path d="M15.5484 57.5237C15.3394 57.5237 15.1699 57.6931 15.1699 57.9021C15.1699 58.1111 15.3394 58.2805 15.5484 58.2805H23.494C23.7029 58.2805 23.8724 58.1111 23.8724 57.9021C23.8724 57.6931 23.7029 57.5237 23.494 57.5237H15.5484Z" fill="#41D400"/>
<path d="M15.5484 56.5237C14.7872 56.5237 14.1699 57.1407 14.1699 57.9021H16.1699C16.1699 58.2455 15.8916 58.5237 15.5484 58.5237V56.5237ZM14.1699 57.9021C14.1699 58.6633 14.7871 59.2805 15.5484 59.2805V57.2805C15.8917 57.2805 16.1699 57.5588 16.1699 57.9021H14.1699ZM15.5484 59.2805H23.494V57.2805H15.5484V59.2805ZM23.494 59.2805C24.2552 59.2805 24.8724 58.6633 24.8724 57.9021H22.8724C22.8724 57.5588 23.1506 57.2805 23.494 57.2805V59.2805ZM24.8724 57.9021C24.8724 57.1407 24.2551 56.5237 23.494 56.5237V58.5237C23.1507 58.5237 22.8724 58.2455 22.8724 57.9021H24.8724ZM23.494 56.5237H15.5484V58.5237H23.494V56.5237Z" fill="black" mask="url(#path-16-inside-10_30_2255)"/>
</svg>
